<?xml version="1.0" encoding="UTF-8"?>
<svg id="_レイヤー_1" data-name="レイヤー 1" xmlns="http://www.w3.org/2000/svg" viewBox="0 0 120 120">
  <defs>
    <style>
      .cls-1 {
        fill: #f48d26;
      }

      .cls-2 {
        fill: #fff;
      }

      .cls-3 {
        fill: #7cb342;
      }
    </style>
  </defs>
  <g>
    <path class="cls-1" d="m61.19,65.47c-8.06-.53-14.85,1.11-20.4,6.16-5.29,4.81-9.52,12.83-10.03,20.52-.52,7.87,1.41,14.24,6.24,19.75,4.83,5.51,12.75,7.51,20.62,8.03,15.75,1.03,29.23-8.29,30.26-24.03.36-5.46-.85-10.68-3.24-15.2-4.49-8.5-13.17-14.55-23.45-15.23Z"/>
    <path class="cls-3" d="m60.5,58.86c-2.21-4.58,6.78-15.82,18.89-20.36,10.42-3.9,19.04-2.92,19.04-2.92,0,0-2.94,14.26-14.98,21.57-8.95,5.44-20.75,6.29-22.96,1.71Z"/>
  </g>
  <g>
    <path class="cls-1" d="m21.04,1.18c-1.2-.55-2.6-.82-4.17-.82l-5.16.03c-.64,0-1.08.42-1.08,1.15.1,1.08.16,2.03.16,2.82l.03,9.97c0,2.23,0,3.79-.03,4.7,0,1.08-.05,2.03-.16,2.82v.1c0,.72.47,1.08.95,1.13.42.04.82.06,1.2.06.31,0,.81-.02,1.57-.07.56-.1.92-.51.91-1.12l-.13-7.4c.72.09,1.35.13,1.92.13,1.55-.02,2.93-.33,4.1-.93,1.19-.61,2.13-1.49,2.79-2.6.65-1.1.98-2.39.98-3.82s-.34-2.62-1.02-3.69c-.68-1.07-1.65-1.89-2.89-2.46Zm-5.88,3.47c.18,0,.38,0,.61,0h1.16c1.17,0,2.08.25,2.71.74.58.46.86,1.09.86,1.93,0,.8-.2,1.42-.62,1.92-.43.5-1.04.84-1.88,1.02-.55.13-1.57.12-2.85-.1,0-2.61,0-4.45.02-5.51Z"/>
    <path class="cls-1" d="m46.61,1.59c-3.6-2.07-8.23-2.07-11.83,0-1.8,1.03-3.24,2.46-4.29,4.24-1.05,1.78-1.58,3.77-1.58,5.89s.53,4.08,1.58,5.87c1.04,1.78,2.48,3.21,4.27,4.24,1.79,1.04,3.79,1.56,5.93,1.56s4.14-.52,5.93-1.56c1.79-1.03,3.23-2.46,4.28-4.24,1.06-1.79,1.59-3.76,1.59-5.87s-.54-4.11-1.59-5.9c-1.05-1.78-2.5-3.21-4.3-4.24Zm-9.52,16.39c-1.1-.64-1.98-1.52-2.62-2.62-.64-1.09-.96-2.31-.96-3.63s.32-2.54.96-3.65c.64-1.1,1.52-1.99,2.62-2.63,1.09-.64,2.3-.96,3.6-.96s2.54.32,3.63.96c1.1.64,1.98,1.53,2.62,2.63.64,1.1.96,2.33.96,3.65s-.32,2.54-.96,3.63c-.64,1.1-1.52,1.98-2.62,2.62-2.17,1.27-5.03,1.29-7.23,0Z"/>
    <path class="cls-1" d="m62.28,1.53c.05-.59-.32-1.06-1-1.17-.53-.04-.92-.06-1.16-.06-.51,0-1.03.03-1.6.09-.56.1-.92.51-.92,1.09,0,.14.02.42.06.81l.08,2.06c.04,2.7.05,5.13.05,7.31s-.02,4.6-.05,7.35c0,.34,0,.64-.03.9-.02.26-.03.46-.06.67l-.06,1.43c0,.59.48,1.06.92,1.02.27.04.76.06,1.46.06.56,0,.98-.01,1.3-.04.73-.11.99-.63.99-1.16-.09-1.06-.13-2.02-.13-2.89-.02-1.37-.03-3.81-.03-7.34s0-5.96.03-7.32c0-.88.04-1.82.13-2.82Z"/>
    <path class="cls-1" d="m87.13.35c-1.16-.08-1.38-.08-2.7.01-.56.1-.92.51-.92,1.13l.03.53c.05,1.34.08,2.18.08,2.54v9.67L70.08.33C69.81.06,69.52,0,69.33,0c-.47,0-.95.35-.95,1.03.02,2.63.03,6.53.03,11.69,0,3.2,0,5.27-.03,6.23-.02,1.02-.07,1.99-.15,2.87-.06.43.08.71.22.87.14.16.35.33.74.34,1.55.17,2.04.13,2.84.02.56-.1.92-.53.91-1.16-.09-.97-.14-1.95-.16-2.95-.02-.75-.03-2.39-.03-4.9,0-1.9,0-3.51.01-4.82l13.55,13.98c.27.27.56.33.75.33.45,0,.95-.33.95-1.06-.04-5-.05-8.74-.05-11.2s.02-4.73.05-6.75c0-.37.02-.91.05-1.62l.06-1.49c0-.53-.36-.94-1-1.05Z"/>
    <path class="cls-1" d="m109.36,3.65c-.15-.85-.23-1.6-.23-2.22s-.44-1.08-1.08-1.08c-.32,0-.58,0-.74.03l-1.58.03-10.68-.02c-.22-.02-.48-.03-.8-.03-.62,0-1.05.44-1.05,1.08,0,.56-.09,1.29-.26,2.19-.07.39.06.67.17.82.19.26.5.42.97.41,1.08-.14,1.94-.22,2.55-.24.53-.01,1.32-.02,2.37-.03,0,.7.01,1.66.01,2.86l-.03,6.66c-.02,1.23-.03,2.85-.03,4.87,0,.76-.05,1.73-.16,2.88-.05.35.06.61.17.76.11.16.33.37.78.44.39.04.75.06,1.08.06s.84-.02,1.63-.06c1.07-.13,1.13-.9,1.12-1.17-.11-1.16-.16-2.14-.16-2.9,0-2.02,0-3.65-.03-4.87l-.03-6.66.02-2.87c1.09,0,1.86.01,2.33.03.59.02,1.44.1,2.48.23.41.08.69-.06.85-.19.13-.11.34-.34.34-.76v-.24Z"/>
  </g>
  <path class="cls-2" d="m68.69,96.86c-.19-1.42-.73-2.76-1.61-4.01-.57-.8-1.24-1.49-2-2.05.66-.6,1.21-1.3,1.64-2.09.69-1.27,1-2.65.92-4.13-.11-1.52-.57-2.91-1.38-4.14-.81-1.22-1.91-2.18-3.26-2.87-1.34-.67-2.85-1.02-4.5-1.02-1.98,0-3.8.45-5.41,1.34-1.58.88-3.11,2.27-4.55,4.15-.2.27-.31.58-.31.89,0,.51.25.94.56,1.11.39.32,1.21.88,2.65,1.81.47.25.87.22,1.12.14.25-.07.61-.26.86-.72.55-.96,1.26-1.73,2.13-2.28.86-.54,1.83-.81,2.95-.81.97,0,1.74.28,2.35.87.6.57.89,1.29.89,2.19s-.34,1.65-1.03,2.25c-.74.64-1.67.95-2.84.95l-1.78-.03c-.29-.03-.67-.04-1.14-.04-.7,0-1.25.46-1.4,1.29-.05.61-.08,1.13-.08,1.54,0,.33.02.81.07,1.34,0,.83.64,1.44,1.58,1.4.66-.07,1.67-.1,2.98-.1.94,0,1.79.2,2.52.59.74.39,1.29.89,1.7,1.53.39.62.58,1.27.58,2,0,.8-.22,1.54-.68,2.26-.41.64-.95,1.11-1.68,1.44-1.45.67-3.26.68-4.6.15-.71-.26-1.35-.68-1.91-1.24-.61-.61-1.25-1.45-1.99-2.61-.12-.14-.49-.58-1.06-.58-.37,0-.72.16-1.11.55-.47.58-1.13,1.17-1.81,1.66-.49.24-.78.7-.78,1.23,0,.29.08.57.21.77.8,1.35,1.77,2.51,2.88,3.46,1.12.96,2.38,1.68,3.72,2.13,1.34.47,2.74.71,4.19.71,1.73,0,3.39-.35,4.92-1.05,1.57-.72,2.84-1.79,3.79-3.2,1.18-1.74,1.77-3.6,1.77-5.54,0-.29-.03-.7-.08-1.26Z"/>
</svg>