<svg width="131" height="240" viewBox="0 0 131 240" fill="none" xmlns="http://www.w3.org/2000/svg">
<g clip-path="url(#clip0_626_2712)">
<path d="M90.7025 55.5583C90.7025 49.2934 88.9728 41.2518 88.0307 37.8544C86.5944 32.6648 84.8183 30.1401 83.382 30.7323C81.5287 31.4804 80.3241 32.8051 78.2855 36.3427C76.7565 38.9765 76.2469 42.031 76.1388 41.6882C76.1388 41.6882 69.8531 40.8154 66.3164 40.8934C63.3666 40.9557 55.8608 41.9531 55.8608 41.9531C55.382 42.0778 54.9033 41.7973 54.7951 41.2986C54.5017 39.9271 53.8685 37.2622 52.9264 35.2206C51.9071 33.0232 48.9728 29.7349 47.104 30.7635C43.4901 32.7427 41.5442 43.9947 41.467 44.8518C41.3897 45.709 39.938 52.7999 39.938 62.9453C39.938 69.3038 39.9071 74.618 42.2855 76.3479C45.5751 78.7323 79.2121 80.3999 88.1851 76.2544C91.1813 74.8674 90.687 63.7869 90.687 55.5739L90.7025 55.5583Z" fill="#604C3F"/>
<path d="M60.4785 60.5456C60.4785 63.2885 58.3627 65.1586 56.2623 65.517C52.9264 66.0937 51.521 63.6157 51.521 60.8573C51.521 58.0988 53.714 55.5586 55.8762 55.5586C58.0384 55.5586 60.4631 57.7872 60.4631 60.53L60.4785 60.5456Z" fill="white"/>
<path d="M53.2352 60.4517C53.3897 58.7063 54.8568 56.7271 56.5402 57.2258C58.409 57.7712 58.7487 59.0491 58.7951 60.6543C58.8414 62.4154 57.6985 63.7712 55.9688 63.9738C53.8221 64.2232 53.0962 62.2128 53.2352 60.4673V60.4517Z" fill="#604C3F"/>
<path d="M82.8413 60.53C82.8413 63.2729 80.7255 65.143 78.6251 65.5014C75.2892 66.0781 74.1309 63.7248 74.1309 60.982C74.1309 58.2391 76.4629 55.5586 78.6251 55.5586C80.7872 55.5586 82.8413 57.7872 82.8413 60.53Z" fill="white"/>
<path d="M75.8455 60.7482C75.722 59.0027 76.7413 57.3663 78.4865 57.4131C80.5405 57.4598 81.0811 58.8469 81.1428 60.3897C81.2046 62.1352 80.3243 63.6469 78.4401 63.7559C76.278 63.8806 75.9691 62.5092 75.8455 60.7482Z" fill="#604C3F"/>
<path d="M67.1658 15.0394C64.0461 15.242 61.5288 16.2238 59.66 18.4524C57.8685 20.5875 56.6485 23.907 56.8492 26.8992C57.05 29.9693 58.1002 32.3381 60.2315 34.2238C62.3627 36.1095 65.4979 36.4836 68.5403 36.281C74.6253 35.8758 79.3203 31.5901 78.9342 25.4498C78.7952 23.3147 78.0693 21.3667 76.9264 19.7303C74.7797 16.6758 71.1504 14.7745 67.1658 15.0238V15.0394Z" fill="#F48D26"/>
<path d="M67.5517 12.0935C66.3471 10.3637 69.266 5.1429 73.9146 2.47796C77.8992 0.187054 81.4822 0.015625 81.4822 0.015625C81.4822 0.015625 81.2197 6.07796 76.8027 9.88056C73.5131 12.7013 68.7718 13.839 67.5671 12.1091L67.5517 12.0935Z" fill="#7CB342"/>
<path d="M62.224 26.3848C61.6216 26.6185 61.3745 27.2419 61.5599 27.5692C61.7452 27.8965 62.5174 27.7718 62.5174 27.7718L62.2394 26.3848H62.224Z" fill="white"/>
<path d="M63.3207 30.5771C62.7338 30.8265 62.5021 31.4498 62.6875 31.7771C62.8728 32.1044 63.4133 32.1823 63.4133 32.1823L63.3052 30.5615L63.3207 30.5771Z" fill="white"/>
<path d="M60.2162 29.377C59.6911 29.751 59.6139 30.4211 59.8764 30.7016C60.139 30.9821 60.5405 30.8886 60.5405 30.8886L60.2316 29.3925L60.2162 29.377Z" fill="white"/>
<path d="M102.193 229.917C102.193 224.697 102.487 210.764 100.17 205.232C97.39 198.561 95.1352 188.837 88.0464 180.546L43.5058 182.011C36.7568 185.938 32.6178 199.2 30.0541 206.681C27.8302 213.195 28.1545 215.751 25.8379 232.473C25.8379 232.473 48.0618 240.265 66.0078 238.723C91.4904 236.541 102.178 229.933 102.178 229.933L102.193 229.917Z" fill="#7CB342"/>
<path d="M103.351 230.026C103.367 222.312 103.938 213.694 101.73 206.198C100.417 201.772 98.579 197.252 96.7721 193.013C95.4284 189.834 92.3705 181.341 88.942 179.798C86.7798 178.831 83.552 179.533 81.2045 179.611C74.5945 179.829 67.9844 180.047 61.3744 180.265C56.0925 180.437 50.4555 180.047 45.2354 180.795C41.1427 181.387 38.8725 184.239 36.664 187.824C28.2315 201.476 26.8261 216.904 24.7257 232.364C24.664 232.863 25.0192 233.408 25.4825 233.564C39.3667 238.348 54.4709 241.076 69.1118 239.595C79.9999 238.489 93.0346 236.805 102.687 230.992C103.954 230.229 102.996 228.094 101.73 228.873C89.9304 235.979 72.2624 238.083 58.9651 237.725C49.0964 237.46 39.1813 235.341 29.745 232.489C25.5906 231.226 26.9806 231.444 27.7528 227.237C28.4786 223.294 28.664 219.226 29.2663 215.252C30.301 208.395 32.7566 201.678 35.4902 195.335C38.0694 189.382 40.6022 183.289 47.3203 183.055C59.2586 182.665 71.1968 182.26 83.1505 181.87C84.2006 181.839 86.9188 181.231 87.9072 181.715C89.9458 182.696 92.1543 188.525 93.2199 190.722C94.5636 193.481 95.6447 196.333 96.7103 199.2C100.494 209.486 101.112 218.883 101.081 229.808C101.081 231.304 103.382 231.522 103.382 230.011L103.351 230.026Z" fill="#7CB342"/>
<path d="M48.7719 171.585C35.9225 187.061 38.1156 203.845 38.2546 208.645C38.3936 213.196 37.6522 214.785 38.0229 219.32C38.3163 222.967 39.8453 227.487 40.9109 231.009C42.687 231.087 44.4785 230.682 45.4051 229.528C47.0576 227.456 48.7565 228.219 51.1966 227.83C53.0808 227.533 56.7719 227.83 58.2237 226.287C59.6754 224.744 58.4244 222.562 58.1465 220.91C57.6214 217.746 57.4206 214.77 57.4515 211.544C57.4978 208.287 57.3588 204.453 56.6947 200.541C55.4901 193.435 55.6754 186.515 55.9071 178.661L56.4013 171.679L49.6986 169.887L48.7874 171.601L48.7719 171.585Z" fill="white"/>
<path d="M80.2933 168.873C88.5404 176.868 88.2933 185.346 89.4825 189.554C90.4864 193.154 90.0385 197.034 90.5945 200.712C91.3821 205.824 91.552 210.717 91.5211 215.891C91.5057 218.541 90.6254 221.299 90.1311 223.855C89.2663 228.468 85.9613 224.104 82.9033 224.868C81.4362 225.242 75.1968 227.517 74.4709 225.616C73.745 223.715 75.9844 210.936 75.7837 205.652C75.5674 199.699 76.0153 198.156 74.1775 178.146L73.4053 171.476L80.3551 168.203L80.2779 168.858L80.2933 168.873Z" fill="white"/>
<path d="M21.4052 141.99C2.98047 142.24 2.54804 121.076 3.19669 116.073C5.6214 97.076 39.4129 88.1773 43.799 87.7254C47.8917 87.3046 62.3936 84.1565 86.4399 88.6916C106.95 92.5565 123.197 104.775 127.49 118.52C133.359 137.362 112.479 143.985 106.672 142.801L21.4206 142.006L21.4052 141.99Z" fill="white"/>
<path d="M27.8608 92.0579C29.9612 81.5851 37.3898 73.2163 53.189 69.928C56.9419 69.1488 72.5404 68.3851 80.1543 69.6942C102.023 73.4189 103.876 91.341 104.201 93.7566" fill="white"/>
<path d="M55.9074 178.832C56.6642 184.24 72.5715 185.892 74.5329 179.471C74.5329 179.471 73.6217 174.577 73.4055 171.679C73.2356 169.59 80.973 171.164 90.919 159.398C92.973 156.967 94.6101 150.437 96.2008 150.437C99.197 150.437 105.004 146.697 105.004 142.925C105.004 135.585 104.278 132.094 97.6835 132.359C97.4055 131.346 95.892 124.037 95.892 124.037C95.5676 122.105 94.0232 116.26 88.8495 113.159C84.6024 110.619 80.1082 108.998 75.3051 107.954C67.7066 106.302 60.278 107.128 52.6487 108.484C45.4981 109.762 35.6603 115.029 32.0927 121.949C32.0927 121.949 32.4943 126.188 31.4132 128.323C30.5792 129.975 30.2703 131.736 29.4981 133.372C28.1545 136.255 22.2703 133.621 23.1352 142.925C23.7993 150.11 28.1854 151.123 32.0464 151.668C33.4672 152.276 33.8688 156.78 36.4325 160.053C38.4711 162.655 40.3398 166.318 43.1506 168.172C45.5136 169.731 53.2974 171.258 56.3707 171.679C56.3707 171.679 55.7529 177.85 55.8919 178.832H55.9074Z" fill="white"/>
<path d="M59.0269 108.358C60.6794 110.899 65.189 121.403 74.6562 121.948C74.7489 120.608 75.3821 114.171 76.1697 114.062C77.3126 113.906 86.5326 122.416 87.7682 121.948C87.7682 121.948 85.5133 114.888 85.9303 111.569L59.0269 108.358Z" fill="#604C3F"/>
<path d="M56.9267 109.34C61.2819 116.447 65.4672 123.257 74.4556 124.286C75.6911 124.426 76.8649 123.397 76.973 122.166C77.0966 120.67 78.363 116.992 77.8533 115.745L76.1236 116.634C76.4788 116.867 76.834 117.117 77.1738 117.382C77.6525 118.13 78.9962 118.784 79.7066 119.345C81.7761 120.966 84.7413 124.223 87.5676 124.301C89.4518 124.364 90.4093 122.696 89.8842 120.997C88.973 118.083 88.1081 114.873 88.2471 111.803C88.3089 110.509 87.4286 109.418 86.1467 109.262C77.1738 108.187 68.2008 107.127 59.2433 106.052C56.278 105.693 55.8765 110.353 58.8417 110.712C67.8147 111.787 76.7877 112.847 85.7452 113.922L83.6448 111.382C83.4595 115.325 84.5097 119.205 85.6834 122.93L88 119.626C86.3012 119.579 83.2124 116.135 81.9151 115.122C80.5406 114.047 78.5483 111.943 76.6796 111.803C72.3861 111.475 72.5869 118.956 72.3707 121.761L74.8881 119.641C67.722 118.816 64.5715 112.956 61.1583 107.408C59.5985 104.883 55.3823 106.8 56.9421 109.356L56.9267 109.34Z" fill="#604C3F"/>
<path d="M21.1119 139.668C11.1351 139.388 6.20842 132.375 5.09646 123.055C4.16981 115.294 6.71808 109.045 12.7104 103.871C21.8687 95.9696 34.7181 91.1852 46.5945 89.6423C67.969 86.8683 93.3127 88.6449 111.228 101.814C119.506 107.907 130.301 120.749 123.83 131.72C120.618 137.159 112.649 141.367 106.363 140.463C103.398 140.042 103.012 144.702 105.961 145.123C118.301 146.899 131.398 135.492 130.208 122.868C128.093 100.583 102.054 89.019 83.1814 85.8242C68.2162 83.2839 51.5984 82.5826 36.803 86.8371C23.5057 90.6553 5.06557 98.1826 0.972903 113.081C-3.11976 127.98 5.26634 143.876 20.7104 144.312C23.6756 144.39 24.108 139.731 21.1119 139.653V139.668Z" fill="#604C3F"/>
<path d="M29.5443 92.8524C34.2084 72.577 56.2779 70.5043 73.498 71.4394C87.4748 72.203 99.5057 79.4342 101.405 94.1303C101.791 97.1225 106.363 96.3277 105.977 93.3355C103.799 76.551 89.8686 67.6056 73.8995 66.764C54.6563 65.7511 30.3319 68.8212 25.1736 91.2472C24.5096 94.1459 28.8648 95.7511 29.5289 92.8212L29.5443 92.8524Z" fill="#604C3F"/>
<path d="M51.2122 135.647C54.1774 135.647 54.6098 130.987 51.6137 130.987C48.6176 130.987 48.216 135.647 51.2122 135.647Z" fill="#604C3F"/>
<path d="M77.4978 135.647C80.4631 135.647 80.8955 130.987 77.8993 130.987C74.9032 130.987 74.5017 135.647 77.4978 135.647Z" fill="#604C3F"/>
<path d="M58.1931 148.878C59.7066 151.465 62.3784 153.07 65.4054 152.681C67.7838 152.369 70.9653 151.325 72.139 149.034C73.4981 146.4 69.6988 143.704 68.3243 146.385C67.4286 148.13 63.5212 148.831 62.4093 146.93C60.9112 144.359 56.6795 146.291 58.1931 148.878Z" fill="#604C3F"/>
<path d="M56.9265 109.34C61.2817 116.447 65.467 123.257 74.4554 124.286C75.691 124.426 76.8647 123.397 76.9728 122.166C77.0964 120.67 78.3628 116.992 77.8531 115.745L76.1234 116.634C76.4786 116.867 76.8338 117.117 77.1736 117.382C77.6524 118.13 78.996 118.784 79.7064 119.345C81.7759 120.966 84.7412 124.223 87.5674 124.301C89.4516 124.364 90.4091 122.696 89.884 120.997C88.9728 118.083 88.108 114.873 88.247 111.803C88.386 108.732 83.7682 108.374 83.6292 111.397C83.4439 115.34 84.4941 119.221 85.6678 122.945L87.9844 119.641C86.2856 119.595 83.1968 116.151 81.8995 115.138C80.5249 114.062 78.5327 111.958 76.6639 111.818C72.3705 111.491 72.5713 118.971 72.3551 121.777L74.8724 119.657C67.7064 118.831 64.5558 112.971 61.1427 107.423C59.5829 104.899 55.3666 106.816 56.9265 109.371V109.34Z" fill="#604C3F"/>
<path d="M46.8568 170.245C33.714 187.06 32.7256 212.089 38.7951 231.959C39.1194 233.019 40.3549 233.346 41.297 233.284C43.351 233.175 44.5557 232.582 46.3008 231.741C48.8491 230.51 50.3008 230.276 53.2661 229.949C56.7719 229.559 60.6792 229.029 61.2043 224.759C61.4514 222.702 60.3395 220.177 60.0769 218.136C59.5673 214.162 59.8452 210.141 59.6136 206.167C59.0885 196.972 57.9302 188.12 58.1927 178.847C58.27 175.855 53.6676 175.419 53.575 178.442C53.2198 190.894 54.5325 203.05 55.2275 215.455C55.3201 217.185 56.8182 221.689 56.3086 223.076C55.1966 226.068 52.3703 225.289 49.9456 225.569C46.3626 226.006 43.8607 228.499 40.5248 228.686L43.0267 230.011C37.4669 211.824 38.7333 188.182 50.6869 172.894C52.5248 170.541 48.7101 167.876 46.8723 170.245H46.8568Z" fill="#604C3F"/>
<path d="M78.5173 170.369C87.5984 180.016 87.8146 193.59 88.8957 206.151C89.2355 210.172 89.4826 214.333 88.942 218.354C88 225.413 88.5868 222.608 84.6332 222.515C82.4864 222.468 77.2818 224.556 76.6486 223.621C75.2895 221.595 77.7142 212.977 77.8996 210.499C78.1158 207.616 78.0694 204.764 78.0077 201.865C77.8532 193.808 77.1891 185.782 76.4633 177.756C76.2007 174.748 71.6293 175.559 71.8918 178.551C72.7722 188.4 73.8687 198.468 73.4054 208.364C73.0965 215.034 67.5675 230.104 78.7953 228.39C81.8378 227.922 83.7992 227.86 86.8262 228.078C88.5868 228.203 89.4517 228.452 90.9806 227.284C94.9034 224.26 93.8687 213.351 93.6834 209.143C93.0501 194.79 92.3861 178.333 82.054 167.377C80.0154 165.211 76.4478 168.203 78.5019 170.385L78.5173 170.369Z" fill="#604C3F"/>
<path d="M53.7913 179.798C55.9535 186.733 68.0616 187.466 73.3125 184.255C76.2932 182.432 76.8183 180.359 76.4786 177.149C76.1388 173.938 74.8724 173.783 76.6176 172.286C78.0384 171.071 81.189 170.463 82.8724 169.45C87.7218 166.551 92.1697 162.39 94.7643 157.325C96.494 153.928 97.0345 153.351 100.216 151.715C102.177 150.718 104.154 149.424 105.482 147.601C110.625 140.572 106.548 130.177 97.884 130.006L99.9689 131.938C98.7643 127.029 98.3782 121.699 95.8454 117.258C91.8145 110.182 83.0114 107.128 75.521 105.616C66.1002 103.715 54.965 104.479 45.9766 108.032C40.3859 110.245 31.3203 115.216 29.8067 121.746C28.8647 125.783 29.7759 129.632 26.2546 132.889C24.772 134.26 22.9805 134.338 21.8222 136.302C19.2739 140.603 20.8647 148.115 24.5712 151.279C26.687 153.086 29.7295 152.931 31.382 154.91C33.6369 157.59 34.8724 162.032 37.1118 165.008C42.0693 171.585 48.355 172.785 56.1851 174.001L54.0847 171.46C53.8531 173.829 53.5751 176.229 53.606 178.614C53.6523 181.59 58.2701 182.027 58.2237 179.019C58.1928 176.634 58.4708 174.234 58.7025 171.866C58.826 170.557 57.8222 169.528 56.6021 169.325C49.0191 168.141 43.9226 166.894 39.4438 160.193C37.0809 156.655 36.2623 151.201 32.2778 149.315C28.5094 147.523 22.2083 145.715 26.1465 139.247C27.4901 137.034 28.0461 137.736 29.8994 136.286C32.772 134.027 34.1002 128.931 34.4554 125.346C34.6253 123.694 34.4554 122.806 35.0423 121.559C36.6793 118.115 41.745 115.201 44.9419 113.611C52.5867 109.762 62.4554 108.686 70.8724 109.606C79.2894 110.525 90.1156 113.736 93.1272 122.525C94.2546 125.798 94.5944 129.382 95.4129 132.733C95.6446 133.699 96.4322 134.65 97.4979 134.666C105.065 134.821 103.706 145.014 98.301 147.46C95.5828 148.692 94.7334 148.068 92.911 150.437C90.6253 153.414 89.9612 156.967 87.3048 159.834C84.1233 163.247 80.5249 165.741 76.2315 167.486C73.4052 168.624 71.6291 168.858 71.1195 172.053C70.3936 176.681 74.7952 179.736 68.1388 181.123C65.2044 181.731 59.0732 181.201 58.023 177.85C57.1272 174.983 52.9264 176.962 53.8067 179.798H53.7913Z" fill="#604C3F"/>
<path d="M41.7453 178.754C33.5908 184.348 30.2549 195.959 27.4287 204.982C24.8186 213.273 24.448 222.218 23.2742 230.805C22.8727 233.798 27.4904 234.187 27.892 231.211C28.9422 223.45 29.2356 215.205 31.4441 207.647C33.9306 199.138 37.1584 187.543 44.726 182.338C47.1816 180.639 44.2009 177.07 41.7453 178.754Z" fill="#604C3F"/>
<path d="M85.9925 180.577C97.0658 194.478 99.6604 211.013 99.6141 228.25C99.6141 231.242 104.216 231.678 104.232 228.655C104.278 210.094 101.483 192.561 89.5446 177.569C87.6759 175.216 84.1237 178.224 85.9925 180.577Z" fill="#604C3F"/>
<path d="M45.4208 71.3919C43.7838 66.6387 36.0154 64.753 33.8069 71.0646C32.9575 73.4802 32.9884 80.3374 38.61 81.4439C44.2162 82.5659 45.9768 81.1789 46.749 79.7452C48.4633 76.488 45.4363 71.3919 45.4363 71.3919H45.4208Z" fill="#604C3F"/>
<path d="M85.6371 72.14C87.2742 67.3867 95.0425 65.501 97.251 71.8127C98.1004 74.2283 98.0695 81.0854 92.4479 82.1919C86.8263 83.2984 85.0811 81.927 84.3089 80.4932C82.5946 77.2361 85.6217 72.14 85.6217 72.14H85.6371Z" fill="#604C3F"/>
</g>
<defs>
<clipPath id="clip0_626_2712">
<rect width="130.286" height="240" fill="white"/>
</clipPath>
</defs>
</svg>
