<svg width="264" height="88" viewBox="0 0 264 88" fill="none" xmlns="http://www.w3.org/2000/svg">
<path d="M47.76 48.959C45.6 48.709 45.02 48.619 45.65 50.429C48.78 59.489 55.47 84.6291 58.67 87.979C59.52 88.869 82.05 61.309 86.11 54.209C86.59 53.369 84.73 53.149 82.62 52.899L47.76 48.969V48.959Z" fill="#F48D26"/>
<path d="M141.94 48.3186C139.8 48.6686 139.22 48.7586 140.32 50.3186C145.85 58.1586 159.23 80.4486 163.25 82.7786C164.31 83.3986 178.32 50.6686 180.25 42.7186C180.48 41.7786 178.63 42.0786 176.53 42.4286L141.94 48.3186Z" fill="#F48D26"/>
<path d="M229.97 19.8496C228.11 20.9796 227.6 21.2696 229.21 22.3096C237.26 27.5296 257.99 43.2296 262.58 43.8996C263.8 44.0796 264.61 8.48958 263.44 0.389584C263.3 -0.560416 261.7 0.389584 259.88 1.49958L229.97 19.8496Z" fill="#F48D26"/>
<path d="M2.39906 36.29C0.299064 35.72 -0.260936 35.56 0.0890642 37.43C1.85906 46.86 6.45906 76.2 7.47906 76.48C8.66906 76.8 34.5191 53.52 39.5691 47.09C40.1691 46.33 38.3591 45.84 36.3091 45.28L2.39906 36.29Z" fill="#7CB342"/>
<path d="M94.08 52.2483C91.91 52.3983 91.49 52.3483 92.28 54.0883C96.84 64.1483 112.77 87.9783 114.15 87.8483C115.37 87.7383 130.96 60.3083 132.74 50.2383C132.91 49.2883 131.19 49.4483 129.07 49.5983L94.09 52.2383L94.08 52.2483Z" fill="#7CB342"/>
<path d="M187.82 39.5104C185.83 40.3904 185.42 40.4804 186.75 41.8504C194.46 49.7604 217.56 66.7404 218.81 66.1504C219.92 65.6304 225.23 34.5304 223.48 24.4604C223.31 23.5104 221.75 24.2504 219.81 25.1104L187.82 39.5104Z" fill="#7CB342"/>
</svg>
