<svg width="178" height="56" viewBox="0 0 178 56" fill="none" xmlns="http://www.w3.org/2000/svg">
<path d="M13.6891 31.8438C13.1107 31.767 12.8382 31.4214 12.7997 30.8044C12.7611 30.0364 12.684 29.2658 12.4912 28.4184C12.3369 27.6862 12.6454 27.4174 13.3807 27.6504C14.6943 28.0344 16.2394 28.1496 17.4374 27.9192C19.5249 27.4558 19.9876 25.6868 18.7125 23.649C17.6687 22.0719 16.5864 21.5702 15.1185 20.1083C13.4578 18.3368 12.8768 16.6445 13.031 14.7219C13.1081 13.2601 13.7277 11.6831 14.846 10.1829C15.1545 9.76045 15.6173 9.60684 16.1211 9.83725C16.9335 10.1445 17.7433 10.5694 18.3629 10.9919C18.8667 11.3375 18.9027 11.8392 18.5171 12.3001C17.9772 12.917 17.242 13.8771 17.1263 15.0317C17.0106 15.8791 17.3577 16.6471 18.2086 17.5329C19.4452 18.8795 20.5275 19.2635 22.1111 21.3039C25.5123 25.7662 23.579 30.9606 18.2086 31.9232C16.7021 32.1536 14.8074 32 13.6866 31.8464L13.6891 31.8438Z" fill="#604C3F"/>
<path d="M7.51407 21.1402C7.51407 22.9527 5.90732 24.4197 3.92266 24.4197C1.938 24.4197 0.331253 22.9502 0.331253 21.1402C0.331253 19.3302 1.938 17.4921 3.92266 17.4921C5.90732 17.4921 7.51407 19.3277 7.51407 21.1402Z" fill="#604C3F"/>
<path d="M35.4329 21.1402C35.4329 22.9527 33.8262 24.4197 31.8415 24.4197C29.8568 24.4197 28.2501 22.9502 28.2501 21.1402C28.2501 19.3302 29.8568 17.4921 31.8415 17.4921C33.8262 17.4921 35.4329 19.3277 35.4329 21.1402Z" fill="#604C3F"/>
<path d="M20.7563 3.64948C20.7563 5.46203 19.1495 6.92896 17.1648 6.92896C15.1802 6.92896 13.5734 5.45947 13.5734 3.64948C13.5734 1.83949 15.1802 0.00134277 17.1648 0.00134277C19.1495 0.00134277 20.7563 1.83693 20.7563 3.64948Z" fill="#604C3F"/>
<path d="M62.0795 31.2115C59.0665 29.5193 58.0228 26.5163 59.5678 24.1687C61.1129 21.7827 64.6297 21.4371 67.5656 23.2445C68.8022 24.0919 69.7688 25.2465 70.5014 26.5521C70.7328 27.0155 71.121 27.1691 71.5452 26.8977C73.4373 25.6663 74.5196 23.7821 74.6739 21.6265C74.9052 19.0101 73.3987 17.2411 70.4243 16.5473C69.1878 16.2785 67.9126 16.2401 66.6761 16.4321C64.0487 16.7777 61.4985 18.2011 59.7221 20.2799C57.9071 22.4739 57.1333 23.3571 56.7477 23.8205C56.3235 24.2813 55.8967 24.3197 55.3954 23.9741C54.817 23.5517 54.1589 23.0115 53.619 22.4739C53.1563 22.0131 53.1948 21.5497 53.6576 21.1273C54.3543 20.4745 55.3569 19.4351 56.4777 18.2037C58.177 16.3169 61.0743 13.0092 62.6991 11.0866C63.3958 10.2776 65.4421 7.77895 67.1029 5.77695C67.5656 5.19837 67.2957 4.77596 66.6015 4.89116C66.0977 4.96796 65.5578 5.04477 64.9023 5.12157C63.0873 5.35198 60.5756 5.65919 59.1462 5.81279C58.5292 5.8896 58.1796 5.58239 58.1025 4.9654C58.0254 4.19481 57.9097 3.58039 57.7554 2.92501C57.6012 2.27218 57.8711 1.84721 58.5678 1.80881C63.5911 1.50159 68.4962 0.961414 71.7046 0.346992C72.2085 0.231787 72.5941 0.308591 72.9797 0.615802C73.5196 1.03822 74.0234 1.5784 74.4862 2.07762C74.9104 2.50003 74.9489 2.96341 74.5248 3.42423C73.9463 4.11801 72.9026 5.11645 71.8203 6.38626L66.9897 11.8879C66.527 12.4255 66.7198 12.8121 67.4525 12.7353C68.7276 12.6201 70.0027 12.6201 71.2007 12.8505C76.1084 13.6595 79.0828 17.0823 78.8128 21.7391C78.62 26.1246 75.3757 30.0108 70.6608 31.5494C67.725 32.6656 64.5166 32.512 62.0821 31.2038L62.0795 31.2115ZM66.91 27.5557C66.6016 26.9413 66.0206 26.3627 65.4807 26.0171C64.2441 25.2465 63.0847 25.3233 62.622 26.1323C62.3135 26.7083 62.6991 27.5173 63.8971 28.0933C64.5526 28.4005 65.4421 28.5951 66.3702 28.5157C66.9512 28.4773 67.1826 28.0549 66.91 27.5531V27.5557Z" fill="#604C3F"/>
<path d="M114.894 29.0227C111.727 24.8292 106.781 19.0972 102.763 15.6334C102.261 15.2494 102.223 14.7501 102.686 14.2868C103.187 13.785 103.806 13.2474 104.385 12.7866C104.848 12.4025 105.313 12.4409 105.737 12.825C107.359 14.3252 109.254 16.2888 110.411 17.4434C110.796 17.8274 111.182 17.9042 111.725 17.7506C117.018 15.9432 120.458 13.2499 121.771 9.82453C121.964 9.28691 121.656 8.93873 121.075 8.93873C117.095 8.93873 118.409 8.93873 110.218 8.97713C106.935 8.97713 104.462 8.97713 101.989 9.05394C100.094 9.09234 98.706 9.13074 97.8165 9.13074C97.1995 9.16914 96.8884 8.82353 96.8499 8.20655C96.8499 7.51276 96.7727 6.70633 96.6956 5.97414C96.6185 5.35972 96.9655 4.97314 97.6237 4.97314C98.3975 5.01155 99.5955 5.04995 101.449 5.08835C103.922 5.12675 106.858 5.12675 110.105 5.12675C113.349 5.08835 117.29 5.08835 119.725 5.08835C121.193 5.08835 123.936 5.04995 125.712 5.01155C126.332 5.01155 126.679 5.35716 126.679 6.01254C126.563 8.62896 126.098 10.4748 124.9 12.6304C122.931 16.0942 119.491 18.8642 114.66 20.8253C114.12 21.0557 114.005 21.4422 114.39 21.8646C115.781 23.4801 117.249 25.1723 118.216 26.4421C118.563 26.9029 118.601 27.3279 118.254 27.6351C117.673 28.1727 116.941 28.7513 116.205 29.2505C115.704 29.5961 115.239 29.5193 114.892 29.0201L114.894 29.0227Z" fill="#604C3F"/>
<path d="M145.109 28.288C144.451 28.0192 144.335 27.5942 144.878 27.0566C147.119 24.9036 149.012 22.4023 149.978 20.3619C151.716 16.6293 151.755 12.8583 151.562 9.12825L151.446 6.70384C151.408 6.08685 151.755 5.74124 152.374 5.74124C153.187 5.70284 154.035 5.70284 154.77 5.77964C155.39 5.85645 155.698 6.16366 155.698 6.78064C155.66 7.39762 155.66 8.24245 155.66 9.39706C155.66 12.9351 155.775 17.2463 153.688 21.939C152.76 24.133 151.061 26.4396 148.51 29.097C148.086 29.5578 147.659 29.5578 147.158 29.2506C146.58 28.905 145.844 28.5594 145.112 28.288H145.109ZM159.868 27.095V14.9371C159.868 12.2823 159.907 9.20505 159.83 7.20305L159.714 4.16422C159.675 3.54724 160.022 3.16323 160.642 3.16323C161.454 3.12482 162.341 3.12482 163.115 3.24003C163.693 3.31683 164.005 3.66244 164.005 4.24103C163.966 4.93481 163.966 5.93325 163.927 7.31826C163.889 9.32025 163.889 12.2823 163.889 14.9371V22.5175C163.889 23.0552 164.236 23.3649 164.776 23.1729C166.436 22.6353 167.943 21.6343 169.372 20.3261C171.653 18.1321 173.005 16.3247 174.28 13.9003C174.627 13.2065 175.092 13.2065 175.517 13.8619C175.864 14.3636 176.288 14.9781 176.676 15.4005C177.1 15.8229 177.216 16.2095 176.907 16.7471C176.056 18.2857 174.473 20.9021 171.923 23.2113C168.755 25.9814 165.046 27.6352 160.873 28.0217C160.215 28.0986 159.868 27.7145 159.868 27.0976V27.095Z" fill="#604C3F"/>
<path d="M8.37265 47.9037H13.1595V49.4858H10.2005V51.027H12.5939V52.5887H10.2005V55.3459H8.37265V47.9037Z" fill="#604C3F"/>
<path d="M24.5352 52.4735C24.5352 54.1503 23.2601 55.4713 21.3886 55.4713C19.517 55.4713 18.2419 54.1503 18.2419 52.4735V47.9139H20.0826V52.3275C20.0826 53.1801 20.5942 53.7535 21.3886 53.7535C22.1829 53.7535 22.6945 53.1801 22.6945 52.3275V47.9139H24.5352V52.4735Z" fill="#604C3F"/>
<path d="M30.1318 47.9037H33.2245C34.8132 47.9037 35.8698 48.9328 35.8698 50.3511C35.8698 51.2574 35.2837 52.0894 34.3865 52.4223L36.3197 55.3459H34.2605L32.6512 52.7858H31.9725V55.3459H30.1318V47.9037ZM33.0265 51.2753C33.6024 51.2753 33.9777 50.8811 33.9777 50.3588C33.9777 49.8366 33.6024 49.4525 33.0265 49.4525H31.9699V51.2728H33.0265V51.2753Z" fill="#604C3F"/>
<path d="M47.6236 52.4735C47.6236 54.1503 46.3485 55.4713 44.4769 55.4713C42.6054 55.4713 41.3303 54.1503 41.3303 52.4735V47.9139H43.171V52.3275C43.171 53.1801 43.6826 53.7535 44.4769 53.7535C45.2713 53.7535 45.7829 53.1801 45.7829 52.3275V47.9139H47.6236V52.4735Z" fill="#604C3F"/>
<path d="M57.7347 48.2878V50.0363C57.2437 49.6626 56.4905 49.4117 55.8015 49.4117C55.1948 49.4117 54.8194 49.6088 54.8194 49.9851C54.8194 50.3615 55.1845 50.5151 55.8966 50.7762C56.9301 51.1705 58.1846 51.6313 58.1846 53.1085C58.1846 54.4935 57.1177 55.4714 55.3105 55.4714C54.3901 55.4714 53.5341 55.2 52.9993 54.8365V52.9728C53.5418 53.4617 54.349 53.8355 55.1742 53.8355C55.8529 53.8355 56.2514 53.5642 56.2514 53.1597C56.2514 52.7116 55.7398 52.5247 54.9968 52.2329C54.1382 51.9103 52.9685 51.4111 52.9685 50.0466C52.9685 48.7563 53.9942 47.7886 55.7372 47.7886C56.5007 47.7886 57.2103 47.9755 57.7347 48.2878V48.2878Z" fill="#604C3F"/>
<path d="M65.5167 47.9037H67.2932L70.157 55.3459H68.2855L67.6994 53.774H65.108L64.5218 55.3459H62.6606L65.5142 47.9037H65.5167ZM67.2109 52.2558L66.4062 49.9671L65.6119 52.2558H67.2109Z" fill="#604C3F"/>
<path d="M76.4529 49.5268H74.4374V47.9037H80.3117V49.5268H78.2936V55.3459H76.4529V49.5268V49.5268Z" fill="#604C3F"/>
<path d="M92.8263 51.6313C92.8263 53.7638 91.217 55.4714 88.9162 55.4714C86.6153 55.4714 85.0163 53.7638 85.0163 51.6313C85.0163 49.4987 86.6153 47.7911 88.9264 47.7911C91.2376 47.7911 92.8263 49.4987 92.8263 51.6313ZM86.9007 51.6313C86.9007 52.8294 87.7053 53.7638 88.929 53.7638C90.1527 53.7638 90.9471 52.8268 90.9471 51.6313C90.9471 50.4357 90.1424 49.4987 88.929 49.4987C87.7156 49.4987 86.9007 50.4255 86.9007 51.6313Z" fill="#604C3F"/>
<path d="M108.282 53.815L106.557 51.068V55.3459H104.729V47.9139H106.38L108.67 51.6312L110.961 47.9139H112.611V55.3459H110.783V51.068L109.058 53.815H108.285H108.282Z" fill="#604C3F"/>
<path d="M120.339 47.9037H122.116L124.98 55.3459H123.108L122.522 53.774H119.931L119.344 55.3459H117.483L120.337 47.9037H120.339ZM122.033 52.2558L121.229 49.9671L120.434 52.2558H122.033Z" fill="#604C3F"/>
<path d="M129.854 47.9037H132.947C134.535 47.9037 135.592 48.9328 135.592 50.3511C135.592 51.2574 135.006 52.0894 134.109 52.4223L136.042 55.3459H133.983L132.373 52.7858H131.695V55.3459H129.854V47.9037ZM132.749 51.2753C133.324 51.2753 133.7 50.8811 133.7 50.3588C133.7 49.8366 133.324 49.4525 132.749 49.4525H131.692V51.2728H132.749V51.2753Z" fill="#604C3F"/>
<path d="M146.603 54.9285C146.112 55.2818 145.423 55.4687 144.608 55.4687C142.412 55.4687 140.762 53.8559 140.762 51.6798C140.762 49.5037 142.456 47.7756 144.682 47.7756C145.381 47.7756 146.032 47.9318 146.523 48.2134V50.0132C146.063 49.6803 145.456 49.4832 144.849 49.4832C143.554 49.4832 142.664 50.3588 142.664 51.6286C142.664 52.8984 143.574 53.7407 144.806 53.7407C145.443 53.7407 146.101 53.523 146.603 53.1365V54.926V54.9285Z" fill="#604C3F"/>
<path d="M151.919 47.9139H153.76V50.7352H156.488V47.9139H158.328V55.3459H156.488V52.3685H153.76V55.3459H151.919V47.9139Z" fill="#604C3F"/>
<path d="M163.994 47.9037H168.897V49.4858H165.825V50.8376H168.313V52.3685H165.825V53.7637H169.043V55.3459H163.994V47.9037Z" fill="#604C3F"/>
</svg>
