<svg width="258" height="80" viewBox="0 0 258 80" fill="none" xmlns="http://www.w3.org/2000/svg">
<path d="M93.6891 47.8438C93.1107 47.767 92.8382 47.4214 92.7997 46.8044C92.7611 46.0364 92.684 45.2658 92.4912 44.4184C92.3369 43.6862 92.6454 43.4174 93.3807 43.6504C94.6943 44.0344 96.2394 44.1496 97.4374 43.9192C99.5249 43.4558 99.9876 41.6868 98.7125 39.649C97.6687 38.0719 96.5864 37.5702 95.1185 36.1083C93.4578 34.3368 92.8768 32.6445 93.031 30.7219C93.1081 29.2601 93.7277 27.6831 94.846 26.1829C95.1545 25.7604 95.6173 25.6068 96.1211 25.8373C96.9335 26.1445 97.7433 26.5694 98.3629 26.9919C98.8667 27.3375 98.9027 27.8392 98.5171 28.3001C97.9772 28.917 97.242 29.8771 97.1263 31.0317C97.0106 31.8791 97.3577 32.6471 98.2086 33.5329C99.4452 34.8795 100.527 35.2635 102.111 37.3039C105.512 41.7662 103.579 46.9606 98.2086 47.9232C96.7021 48.1536 94.8074 48 93.6866 47.8464L93.6891 47.8438Z" fill="#604C3F"/>
<path d="M87.5141 37.1402C87.5141 38.9527 85.9073 40.4197 83.9227 40.4197C81.938 40.4197 80.3313 38.9502 80.3313 37.1402C80.3313 35.3302 81.938 33.4921 83.9227 33.4921C85.9073 33.4921 87.5141 35.3277 87.5141 37.1402Z" fill="#604C3F"/>
<path d="M115.433 37.1402C115.433 38.9527 113.826 40.4197 111.841 40.4197C109.857 40.4197 108.25 38.9502 108.25 37.1402C108.25 35.3302 109.857 33.4921 111.841 33.4921C113.826 33.4921 115.433 35.3277 115.433 37.1402Z" fill="#604C3F"/>
<path d="M100.756 19.6495C100.756 21.462 99.1495 22.929 97.1648 22.929C95.1802 22.929 93.5734 21.4595 93.5734 19.6495C93.5734 17.8395 95.1802 16.0013 97.1648 16.0013C99.1495 16.0013 100.756 17.8369 100.756 19.6495Z" fill="#604C3F"/>
<path d="M142.08 47.2115C139.067 45.5193 138.023 42.5163 139.568 40.1687C141.113 37.7827 144.63 37.4371 147.566 39.2445C148.802 40.0919 149.769 41.2465 150.501 42.5521C150.733 43.0155 151.121 43.1691 151.545 42.8977C153.437 41.6663 154.52 39.7821 154.674 37.6265C154.905 35.0101 153.399 33.2411 150.424 32.5473C149.188 32.2785 147.913 32.2401 146.676 32.4321C144.049 32.7777 141.499 34.2011 139.722 36.2799C137.907 38.4739 137.133 39.3571 136.748 39.8205C136.323 40.2813 135.897 40.3197 135.395 39.9741C134.817 39.5517 134.159 39.0115 133.619 38.4739C133.156 38.0131 133.195 37.5497 133.658 37.1273C134.354 36.4745 135.357 35.4351 136.478 34.2037C138.177 32.3169 141.074 29.0092 142.699 27.0866C143.396 26.2776 145.442 23.7789 147.103 21.777C147.566 21.1984 147.296 20.776 146.602 20.8912C146.098 20.968 145.558 21.0448 144.902 21.1216C143.087 21.352 140.576 21.6592 139.146 21.8128C138.529 21.8896 138.18 21.5824 138.102 20.9654C138.025 20.1948 137.91 19.5804 137.755 18.925C137.601 18.2722 137.871 17.8472 138.568 17.8088C143.591 17.5016 148.496 16.9614 151.705 16.347C152.208 16.2318 152.594 16.3086 152.98 16.6158C153.52 17.0382 154.023 17.5784 154.486 18.0776C154.91 18.5 154.949 18.9634 154.525 19.4242C153.946 20.118 152.903 21.1164 151.82 22.3863L146.99 27.8879C146.527 28.4255 146.72 28.8121 147.452 28.7353C148.728 28.6201 150.003 28.6201 151.201 28.8505C156.108 29.6595 159.083 33.0823 158.813 37.7391C158.62 42.1246 155.376 46.0108 150.661 47.5494C147.725 48.6656 144.517 48.512 142.082 47.2038L142.08 47.2115ZM146.91 43.5557C146.602 42.9413 146.021 42.3627 145.481 42.0171C144.244 41.2465 143.085 41.3233 142.622 42.1323C142.313 42.7083 142.699 43.5173 143.897 44.0933C144.553 44.4005 145.442 44.5951 146.37 44.5157C146.951 44.4773 147.183 44.0549 146.91 43.5531V43.5557Z" fill="#604C3F"/>
<path d="M194.894 45.0227C191.727 40.8292 186.781 35.0972 182.763 31.6334C182.261 31.2494 182.223 30.7501 182.686 30.2868C183.187 29.785 183.806 29.2474 184.385 28.7866C184.848 28.4025 185.313 28.4409 185.737 28.825C187.359 30.3252 189.254 32.2888 190.411 33.4434C190.796 33.8274 191.182 33.9042 191.725 33.7506C197.018 31.9432 200.458 29.2499 201.771 25.8245C201.964 25.2869 201.656 24.9387 201.075 24.9387C197.095 24.9387 198.409 24.9387 190.218 24.9771C186.935 24.9771 184.462 24.9771 181.989 25.0539C180.094 25.0923 178.706 25.1307 177.816 25.1307C177.199 25.1691 176.888 24.8235 176.85 24.2065C176.85 23.5128 176.773 22.7063 176.696 21.9741C176.618 21.3597 176.966 20.9731 177.624 20.9731C178.397 21.0115 179.595 21.0499 181.449 21.0883C183.922 21.1268 186.858 21.1267 190.105 21.1267C193.349 21.0883 197.29 21.0883 199.725 21.0883C201.193 21.0883 203.936 21.0499 205.712 21.0115C206.332 21.0115 206.679 21.3572 206.679 22.0125C206.563 24.629 206.098 26.4748 204.9 28.6304C202.931 32.0942 199.491 34.8642 194.66 36.8253C194.12 37.0557 194.005 37.4422 194.39 37.8646C195.781 39.4801 197.249 41.1723 198.216 42.4421C198.563 42.9029 198.601 43.3279 198.254 43.6351C197.673 44.1727 196.941 44.7513 196.205 45.2505C195.704 45.5961 195.239 45.5193 194.892 45.0201L194.894 45.0227Z" fill="#604C3F"/>
<path d="M225.109 44.288C224.451 44.0192 224.335 43.5942 224.878 43.0566C227.119 40.9036 229.012 38.4023 229.978 36.3619C231.716 32.6293 231.755 28.8583 231.562 25.1282L231.446 22.7038C231.408 22.0869 231.755 21.7412 232.374 21.7412C233.187 21.7028 234.035 21.7028 234.77 21.7796C235.39 21.8564 235.698 22.1637 235.698 22.7806C235.66 23.3976 235.66 24.2425 235.66 25.3971C235.66 28.9351 235.775 33.2463 233.688 37.939C232.76 40.133 231.061 42.4396 228.51 45.097C228.086 45.5578 227.659 45.5578 227.158 45.2506C226.58 44.905 225.844 44.5594 225.112 44.288H225.109ZM239.868 43.095V30.9371C239.868 28.2823 239.907 25.205 239.83 23.2031L239.714 20.1642C239.675 19.5472 240.022 19.1632 240.642 19.1632C241.454 19.1248 242.341 19.1248 243.115 19.24C243.693 19.3168 244.005 19.6624 244.005 20.241C243.966 20.9348 243.966 21.9332 243.927 23.3183C243.889 25.3203 243.889 28.2823 243.889 30.9371V38.5175C243.889 39.0552 244.236 39.3649 244.776 39.1729C246.436 38.6353 247.943 37.6343 249.372 36.3261C251.653 34.1321 253.005 32.3247 254.28 29.9003C254.627 29.2065 255.092 29.2065 255.517 29.8619C255.864 30.3636 256.288 30.9781 256.676 31.4005C257.1 31.8229 257.216 32.2095 256.907 32.7471C256.056 34.2857 254.473 36.9021 251.923 39.2113C248.755 41.9814 245.046 43.6352 240.873 44.0217C240.215 44.0986 239.868 43.7145 239.868 43.0976V43.095Z" fill="#604C3F"/>
<path d="M88.3727 63.9037H93.1595V65.4858H90.2005V67.027H92.5939V68.5887H90.2005V71.3459H88.3727V63.9037Z" fill="#604C3F"/>
<path d="M104.535 68.4735C104.535 70.1503 103.26 71.4713 101.389 71.4713C99.517 71.4713 98.2419 70.1503 98.2419 68.4735V63.9139H100.083V68.3275C100.083 69.1801 100.594 69.7535 101.389 69.7535C102.183 69.7535 102.695 69.1801 102.695 68.3275V63.9139H104.535V68.4735Z" fill="#604C3F"/>
<path d="M110.132 63.9037H113.224C114.813 63.9037 115.87 64.9328 115.87 66.3511C115.87 67.2574 115.284 68.0894 114.386 68.4223L116.32 71.3459H114.261L112.651 68.7858H111.973V71.3459H110.132V63.9037ZM113.027 67.2753C113.602 67.2753 113.978 66.8811 113.978 66.3588C113.978 65.8366 113.602 65.4525 113.027 65.4525H111.97V67.2728H113.027V67.2753Z" fill="#604C3F"/>
<path d="M127.624 68.4735C127.624 70.1503 126.348 71.4713 124.477 71.4713C122.605 71.4713 121.33 70.1503 121.33 68.4735V63.9139H123.171V68.3275C123.171 69.1801 123.683 69.7535 124.477 69.7535C125.271 69.7535 125.783 69.1801 125.783 68.3275V63.9139H127.624V68.4735Z" fill="#604C3F"/>
<path d="M137.735 64.2878V66.0363C137.244 65.6626 136.49 65.4117 135.801 65.4117C135.195 65.4117 134.819 65.6088 134.819 65.9851C134.819 66.3615 135.184 66.5151 135.897 66.7762C136.93 67.1705 138.185 67.6313 138.185 69.1085C138.185 70.4935 137.118 71.4714 135.31 71.4714C134.39 71.4714 133.534 71.2 132.999 70.8365V68.9728C133.542 69.4617 134.349 69.8355 135.174 69.8355C135.853 69.8355 136.251 69.5642 136.251 69.1597C136.251 68.7116 135.74 68.5247 134.997 68.2329C134.138 67.9103 132.968 67.4111 132.968 66.0466C132.968 64.7563 133.994 63.7886 135.737 63.7886C136.501 63.7886 137.21 63.9755 137.735 64.2878Z" fill="#604C3F"/>
<path d="M145.517 63.9037H147.293L150.157 71.3459H148.285L147.699 69.774H145.108L144.522 71.3459H142.661L145.514 63.9037H145.517ZM147.211 68.2558L146.406 65.9671L145.612 68.2558H147.211Z" fill="#604C3F"/>
<path d="M156.453 65.5268H154.437V63.9037H160.312V65.5268H158.294V71.3459H156.453V65.5268Z" fill="#604C3F"/>
<path d="M172.826 67.6313C172.826 69.7638 171.217 71.4714 168.916 71.4714C166.615 71.4714 165.016 69.7638 165.016 67.6313C165.016 65.4987 166.615 63.7911 168.926 63.7911C171.238 63.7911 172.826 65.4987 172.826 67.6313ZM166.901 67.6313C166.901 68.8294 167.705 69.7638 168.929 69.7638C170.153 69.7638 170.947 68.8268 170.947 67.6313C170.947 66.4357 170.142 65.4987 168.929 65.4987C167.716 65.4987 166.901 66.4255 166.901 67.6313Z" fill="#604C3F"/>
<path d="M188.282 69.815L186.557 67.068V71.3459H184.729V63.9139H186.38L188.67 67.6312L190.961 63.9139H192.611V71.3459H190.783V67.068L189.058 69.815H188.285H188.282Z" fill="#604C3F"/>
<path d="M200.339 63.9037H202.116L204.98 71.3459H203.108L202.522 69.774H199.931L199.344 71.3459H197.483L200.337 63.9037H200.339ZM202.033 68.2558L201.229 65.9671L200.434 68.2558H202.033Z" fill="#604C3F"/>
<path d="M209.854 63.9037H212.947C214.535 63.9037 215.592 64.9328 215.592 66.3511C215.592 67.2574 215.006 68.0894 214.109 68.4223L216.042 71.3459H213.983L212.373 68.7858H211.695V71.3459H209.854V63.9037ZM212.749 67.2753C213.324 67.2753 213.7 66.8811 213.7 66.3588C213.7 65.8366 213.324 65.4525 212.749 65.4525H211.692V67.2728H212.749V67.2753Z" fill="#604C3F"/>
<path d="M226.603 70.9285C226.112 71.2818 225.423 71.4687 224.608 71.4687C222.412 71.4687 220.762 69.8559 220.762 67.6798C220.762 65.5037 222.456 63.7756 224.682 63.7756C225.381 63.7756 226.032 63.9318 226.523 64.2134V66.0132C226.063 65.6803 225.456 65.4832 224.849 65.4832C223.554 65.4832 222.664 66.3588 222.664 67.6286C222.664 68.8984 223.574 69.7407 224.806 69.7407C225.443 69.7407 226.101 69.523 226.603 69.1365V70.926V70.9285Z" fill="#604C3F"/>
<path d="M231.919 63.9139H233.76V66.7352H236.488V63.9139H238.328V71.3459H236.488V68.3685H233.76V71.3459H231.919V63.9139Z" fill="#604C3F"/>
<path d="M243.994 63.9037H248.897V65.4858H245.825V66.8376H248.313V68.3685H245.825V69.7637H249.043V71.3459H243.994V63.9037Z" fill="#604C3F"/>
<path d="M37.4164 12.1305C34.4806 11.9385 32.01 12.535 29.9868 14.3629C28.0587 16.1089 26.5188 19.0172 26.3363 21.8025C26.1486 24.657 26.8479 26.9662 28.6089 28.9631C30.3673 30.96 33.2492 31.6845 36.1156 31.874C41.8485 32.2477 46.7561 28.8684 47.1315 23.1619C47.2626 21.1804 46.823 19.2911 45.9515 17.6526C44.3165 14.5703 41.1569 12.3763 37.4139 12.1305H37.4164Z" fill="#F48D26"/>
<path d="M19.683 46.8685C19.2717 46.5818 18.8501 46.2899 18.4156 45.9904C12.3691 41.7995 7.05783 38.6019 4.68755 37.1171C3.74407 36.5257 2.78259 36.1826 2.23244 37.1171C1.69 38.0387 0.818501 42.291 0.345473 46.8275C-0.266377 52.6876 0.0241235 61.5276 0.525429 63.4605C1.15785 65.9028 20.6779 80.8128 24.8452 79.9654C26.9353 79.4303 25.2077 71.7731 25.5702 63.9776C25.745 60.2143 25.5573 57.4212 25.5702 53.2866C25.5753 51.3563 24.9892 50.8264 24.4544 50.3169C23.4852 49.3953 23.1973 49.3108 19.683 46.871V46.8685Z" fill="#7CB342"/>
<path d="M38.1311 9.45779C37.221 7.71181 40.581 3.2598 45.2342 1.36533C49.2343 -0.262887 52.5944 0.0187235 52.5944 0.0187235C52.5944 0.0187235 51.6175 5.56901 47.026 8.5336C43.612 10.7378 39.0411 11.2063 38.1311 9.45779Z" fill="#7CB342"/>
<path d="M22.4389 34.3137C23.5546 33.9195 25.1819 32.619 26.7707 31.9456C27.272 31.7332 27.4648 31.129 27.1589 30.6784C26.272 29.3702 24.3104 26.9765 24.3104 24.1502C24.3104 22.3837 24.2873 21.8282 24.9403 19.8671C25.7141 17.9778 25.6113 18.0162 25.3542 18.0162C19.6753 18.0162 14.7059 22.5373 14.4206 28.1311C14.4206 28.5151 14.5774 28.7839 14.9347 28.9452C19.2151 29.447 20.6059 32.8186 21.4389 34.0116C21.6599 34.3291 22.0687 34.4469 22.4363 34.3163L22.4389 34.3137Z" fill="#F48D26"/>
<path d="M20.0971 36.9814C20.2796 36.6281 20.3181 36.2159 20.1922 35.8396C18.9376 32.107 16.5699 30.3917 12.2844 29.7568C8.64929 29.2166 5.10673 31.5207 4.44089 33.3512C4.35863 33.5816 4.39719 34.2395 4.60542 34.3675L18.1484 43.0155C18.3489 43.1384 18.606 43.0104 18.6291 42.7774C18.8219 40.9982 19.3078 38.5175 20.0945 36.9814H20.0971Z" fill="#F48D26"/>
<path d="M44.0644 45.934C43.6248 47.6621 47.5607 45.9878 49.3808 45.4399C51.2369 44.8818 52.4452 44.7922 52.5481 44.0805C53.0751 40.4452 55.4556 36.4233 55.4762 36.0802C55.7076 32.491 52.692 28.5561 47.3242 28.4358C46.9926 28.4358 46.6866 29.0579 46.4784 29.4624C45.2624 31.874 43.2315 32.788 41.5065 33.451C41.072 33.6174 40.9306 34.1627 41.2185 34.5263C44.4912 38.6455 44.4577 42.6469 44.0644 45.9366V45.934Z" fill="#F48D26"/>
<path d="M64.2556 58.4144C64.2556 53.7525 64.2068 49.4976 63.8674 46.9017C63.3147 42.657 61.8776 38.2101 59.8775 37.1784C59.4302 36.948 58.9546 36.884 58.4559 37.0351C57.1319 37.437 56.1499 39.6105 55.4892 41.7482C55.0444 43.1844 54.7462 44.6053 54.5868 45.4629C54.4917 45.9672 54.1215 46.3717 53.6254 46.5074C53.6254 46.5074 46.7999 48.2176 45.026 48.7782C43.2522 49.3389 40.0952 50.2119 40.0952 50.2119L38.4962 50.6496C38.1389 50.7469 37.7712 50.5293 37.6967 50.1683C37.4807 49.152 37.0026 47.1679 36.293 45.6523C35.5269 44.019 33.3186 41.5715 31.9072 42.3345C29.1848 43.8065 28.0382 51.8657 27.9842 52.4929C27.9302 53.1227 27.7066 54.8815 27.6654 56.4252C27.6294 57.7897 27.5292 63.1429 27.5883 66.1485C27.6834 70.8795 26.8042 78.3524 28.5986 79.635C31.0743 81.4066 55.6383 75.544 62.3995 72.454C64.6541 71.4223 64.2582 64.5151 64.2582 58.4093L64.2556 58.4144Z" fill="#7CB342"/>
<path d="M26.2412 48.7296C26.4571 48.8576 26.7322 48.7475 26.7965 48.5043C27.7271 44.9279 29.2002 40.9009 31.2876 39.7719C33.352 38.6557 36.5809 42.2347 37.6992 44.6207C38.4293 46.1798 38.9281 46.9427 39.2983 48.2714C39.3522 48.4634 39.5451 48.5914 39.7404 48.5453C40.6351 48.343 41.1081 48.1434 41.3112 48.041C41.3935 48 41.4552 47.9283 41.4886 47.8438C44.7586 39.8922 38.5579 32.1402 31.0306 32.8519C25.1794 33.4049 20.3695 37.6137 20.3695 43.4661C20.3695 44.0574 20.3695 44.6514 20.6034 45.084C20.6343 45.1429 20.6831 45.189 20.7397 45.2249L25.2797 48.1459L26.2437 48.7219L26.2412 48.7296Z" fill="#F48D26"/>
<path d="M44.147 64.4925C44.147 66.5355 42.5557 67.918 40.9695 68.1919C38.4604 68.6245 37.4013 66.7762 37.4013 64.7332C37.4013 62.6902 39.0517 60.7932 40.6867 60.7932C42.3218 60.7932 44.1445 62.4496 44.1445 64.4925H44.147Z" fill="white"/>
<path d="M39.0954 64.4259C39.2059 63.1254 40.3139 61.6559 41.5788 62.0246C42.9901 62.4342 43.2472 63.3814 43.278 64.5744C43.3089 65.8801 42.4477 66.8862 41.1494 67.0372C39.5298 67.2241 38.9822 65.729 39.0954 64.4285V64.4259Z" fill="#7CB342"/>
<path d="M59.6179 60.7572C59.6179 62.8002 58.0265 64.1826 56.4403 64.4565C53.9312 64.8892 53.052 63.1355 53.052 61.0926C53.052 59.0496 54.8027 57.0579 56.4403 57.0579C58.0779 57.0579 59.6179 58.7142 59.6179 60.7572Z" fill="white"/>
<path d="M54.9853 60.9133C54.8954 59.6102 55.6563 58.3993 56.9751 58.43C58.5279 58.4659 58.9341 59.5001 58.9778 60.6394C59.0292 61.9399 58.3582 63.0638 56.9391 63.1483C55.3118 63.2456 55.0753 62.2164 54.9853 60.9133Z" fill="#7CB342"/>
<path d="M31.4187 21.9869C30.83 22.1303 30.5215 22.6679 30.65 22.9982C30.7786 23.3284 31.5138 23.3003 31.5138 23.3003L31.4187 21.9869Z" fill="white"/>
<path d="M31.9277 25.986C31.3441 26.1472 31.0511 26.6951 31.1925 27.0202C31.3313 27.3479 31.8274 27.4862 31.8274 27.4862L31.9303 25.9834L31.9277 25.986Z" fill="white"/>
<path d="M29.1769 24.4984C28.6447 24.7877 28.4828 25.3842 28.6936 25.6709C28.9018 25.9577 29.2849 25.9193 29.2849 25.9193L29.1769 24.4958V24.4984Z" fill="white"/>
</svg>
