<svg width="234" height="73" viewBox="0 0 234 73" fill="none" xmlns="http://www.w3.org/2000/svg">
<path d="M85.0517 43.8876C84.5266 43.8185 84.2792 43.5074 84.2442 42.9521C84.2092 42.2609 84.1391 41.5674 83.9641 40.8047C83.8241 40.1458 84.1041 39.9038 84.7716 40.1135C85.9642 40.4591 87.3668 40.5628 88.4543 40.3554C90.3494 39.9384 90.7694 38.3463 89.6119 36.5122C88.6644 35.0929 87.6818 34.6413 86.3492 33.3257C84.8416 31.7312 84.3142 30.2082 84.4542 28.4779C84.5242 27.1622 85.0867 25.7429 86.1019 24.3927C86.3819 24.0126 86.802 23.8743 87.2594 24.0817C87.9969 24.3582 88.732 24.7406 89.2945 25.1208C89.7519 25.4319 89.7846 25.8835 89.4345 26.2982C88.9444 26.8535 88.2769 27.7175 88.1719 28.7567C88.0669 29.5193 88.382 30.2105 89.1545 31.0078C90.277 32.2197 91.2595 32.5653 92.6971 34.4017C95.7847 38.4177 94.0297 43.0927 89.1545 43.959C87.7869 44.1664 86.0669 44.0281 85.0493 43.8899L85.0517 43.8876Z" fill="#604C3F"/>
<path d="M79.4458 34.2545C79.4458 35.8858 77.9871 37.206 76.1855 37.206C74.3838 37.206 72.9252 35.8835 72.9252 34.2545C72.9252 32.6255 74.3838 30.9712 76.1855 30.9712C77.9871 30.9712 79.4458 32.6232 79.4458 34.2545Z" fill="#604C3F"/>
<path d="M104.791 34.2545C104.791 35.8858 103.332 37.206 101.53 37.206C99.7288 37.206 98.2701 35.8835 98.2701 34.2545C98.2701 32.6255 99.7288 30.9712 101.53 30.9712C103.332 30.9712 104.791 32.6232 104.791 34.2545Z" fill="#604C3F"/>
<path d="M91.4671 18.5128C91.4671 20.1441 90.0085 21.4643 88.2068 21.4643C86.4051 21.4643 84.9465 20.1418 84.9465 18.5128C84.9465 16.8838 86.4051 15.2295 88.2068 15.2295C90.0085 15.2295 91.4671 16.8815 91.4671 18.5128Z" fill="#604C3F"/>
<path d="M128.981 43.3184C126.245 41.7954 125.298 39.0928 126.701 36.9799C128.103 34.8325 131.296 34.5214 133.961 36.1481C135.084 36.9108 135.961 37.9499 136.626 39.125C136.836 39.5421 137.189 39.6803 137.574 39.4361C139.291 38.3278 140.274 36.632 140.414 34.692C140.624 32.3372 139.256 30.7451 136.556 30.1206C135.434 29.8787 134.276 29.8442 133.153 30.017C130.768 30.328 128.453 31.6091 126.841 33.48C125.193 35.4546 124.49 36.2495 124.14 36.6666C123.755 37.0813 123.368 37.1159 122.913 36.8048C122.388 36.4246 121.79 35.9385 121.3 35.4546C120.88 35.0399 120.915 34.6228 121.335 34.2427C121.968 33.6551 122.878 32.7197 123.895 31.6114C125.438 29.9133 128.068 26.9364 129.543 25.206C130.176 24.4779 132.033 22.2292 133.541 20.4274C133.961 19.9066 133.716 19.5265 133.086 19.6301C132.628 19.6993 132.138 19.7684 131.543 19.8375C129.896 20.0449 127.615 20.3214 126.318 20.4596C125.758 20.5287 125.44 20.2522 125.37 19.697C125.3 19.0034 125.195 18.4505 125.055 17.8606C124.915 17.2731 125.16 16.8906 125.793 16.856C130.353 16.5795 134.806 16.0934 137.718 15.5404C138.176 15.4367 138.526 15.5058 138.876 15.7823C139.366 16.1625 139.823 16.6487 140.243 17.098C140.629 17.4781 140.664 17.8952 140.279 18.3099C139.753 18.9343 138.806 19.8329 137.823 20.9757L133.438 25.9272C133.018 26.4111 133.193 26.759 133.858 26.6899C135.016 26.5862 136.173 26.5862 137.261 26.7935C141.716 27.5216 144.416 30.6022 144.171 34.7933C143.996 38.7402 141.051 42.2378 136.771 43.6226C134.106 44.6272 131.193 44.4889 128.983 43.3115L128.981 43.3184ZM133.366 40.0282C133.086 39.4752 132.558 38.9545 132.068 38.6435C130.946 37.9499 129.893 38.0191 129.473 38.7471C129.193 39.2656 129.543 39.9937 130.631 40.5121C131.226 40.7886 132.033 40.9637 132.876 40.8922C133.403 40.8577 133.613 40.4775 133.366 40.0259V40.0282Z" fill="#604C3F"/>
<path d="M176.926 41.3487C174.051 37.5746 169.561 32.4157 165.913 29.2983C165.458 28.9527 165.423 28.5034 165.843 28.0864C166.298 27.6348 166.86 27.1509 167.386 26.7362C167.806 26.3906 168.228 26.4251 168.613 26.7707C170.086 28.1209 171.806 29.8882 172.856 30.9273C173.206 31.2729 173.556 31.342 174.049 31.2038C178.854 29.5771 181.976 27.1532 183.169 24.0703C183.344 23.5865 183.064 23.2731 182.536 23.2731C178.924 23.2731 180.116 23.2731 172.681 23.3077C169.701 23.3077 167.456 23.3077 165.21 23.3768C163.49 23.4114 162.23 23.4459 161.423 23.4459C160.863 23.4805 160.58 23.1694 160.545 22.6142C160.545 21.9898 160.475 21.264 160.405 20.605C160.335 20.052 160.65 19.7041 161.248 19.7041C161.95 19.7387 163.038 19.7732 164.72 19.8078C166.965 19.8423 169.631 19.8423 172.578 19.8423C175.523 19.8078 179.101 19.8078 181.311 19.8078C182.644 19.8078 185.134 19.7732 186.747 19.7387C187.309 19.7387 187.624 20.0497 187.624 20.6396C187.519 22.9943 187.097 24.6556 186.009 26.5956C184.221 29.7131 181.099 32.2061 176.714 33.971C176.224 34.1784 176.119 34.5263 176.469 34.9065C177.731 36.3603 179.064 37.8833 179.941 39.0262C180.256 39.4409 180.291 39.8234 179.976 40.0999C179.449 40.5837 178.784 41.1045 178.116 41.5537C177.661 41.8648 177.239 41.7957 176.924 41.3464L176.926 41.3487Z" fill="#604C3F"/>
<path d="M204.355 40.6877C203.758 40.4457 203.653 40.0632 204.145 39.5794C206.18 37.6416 207.898 35.3906 208.775 33.5542C210.353 30.1948 210.388 26.8009 210.213 23.4439L210.108 21.2619C210.073 20.7066 210.388 20.3956 210.951 20.3956C211.688 20.361 212.458 20.361 213.126 20.4301C213.688 20.4993 213.968 20.7757 213.968 21.331C213.933 21.8863 213.933 22.6467 213.933 23.6858C213.933 26.8701 214.038 30.7501 212.143 34.9735C211.301 36.9481 209.758 39.0241 207.443 41.4157C207.058 41.8305 206.67 41.8305 206.215 41.554C205.69 41.2429 205.023 40.9319 204.358 40.6877H204.355ZM217.753 39.6139V28.6718C217.753 26.2825 217.788 23.513 217.718 21.7112L217.613 18.9763C217.578 18.421 217.894 18.0754 218.456 18.0754C219.193 18.0408 219.999 18.0408 220.701 18.1445C221.226 18.2136 221.509 18.5247 221.509 19.0454C221.474 19.6698 221.474 20.5684 221.439 21.8149C221.404 23.6167 221.404 26.2825 221.404 28.6718V35.4942C221.404 35.9781 221.719 36.2569 222.209 36.0841C223.716 35.6002 225.084 34.6993 226.381 33.5219C228.452 31.5473 229.679 29.9207 230.837 27.7387C231.152 27.1143 231.574 27.1143 231.959 27.7041C232.274 28.1557 232.659 28.7087 233.012 29.0889C233.397 29.4691 233.502 29.817 233.222 30.3008C232.449 31.6856 231.012 34.0404 228.697 36.1187C225.821 38.6117 222.454 40.1001 218.666 40.448C218.069 40.5171 217.753 40.1715 217.753 39.6163V39.6139Z" fill="#604C3F"/>
<path d="M80.225 58.3413H84.5705V59.7652H81.8843V61.1523H84.0571V62.5578H81.8843V65.0393H80.225V58.3413Z" fill="#604C3F"/>
<path d="M94.8973 62.4542C94.8973 63.9633 93.7397 65.1523 92.0408 65.1523C90.3418 65.1523 89.1842 63.9633 89.1842 62.4542V58.3506H90.8552V62.3228C90.8552 63.0901 91.3196 63.6062 92.0408 63.6062C92.7619 63.6062 93.2263 63.0901 93.2263 62.3228V58.3506H94.8973V62.4542Z" fill="#604C3F"/>
<path d="M99.9781 58.3413H102.786C104.228 58.3413 105.187 59.2676 105.187 60.544C105.187 61.3597 104.655 62.1085 103.841 62.408L105.596 65.0393H103.726L102.265 62.7352H101.649V65.0393H99.9781V58.3413ZM102.606 61.3758C103.129 61.3758 103.469 61.021 103.469 60.5509C103.469 60.0809 103.129 59.7353 102.606 59.7353H101.647V61.3735H102.606V61.3758Z" fill="#604C3F"/>
<path d="M115.857 62.4542C115.857 63.9633 114.699 65.1523 113 65.1523C111.301 65.1523 110.144 63.9633 110.144 62.4542V58.3506H111.815V62.3228C111.815 63.0901 112.279 63.6062 113 63.6062C113.722 63.6062 114.186 63.0901 114.186 62.3228V58.3506H115.857V62.4542Z" fill="#604C3F"/>
<path d="M125.036 58.6871V60.2608C124.59 59.9244 123.906 59.6986 123.281 59.6986C122.73 59.6986 122.389 59.876 122.389 60.2147C122.389 60.5534 122.721 60.6916 123.367 60.9267C124.305 61.2815 125.444 61.6962 125.444 63.0257C125.444 64.2722 124.476 65.1524 122.835 65.1524C122 65.1524 121.223 64.9081 120.737 64.5809V62.9036C121.23 63.3436 121.962 63.68 122.711 63.68C123.328 63.68 123.689 63.4358 123.689 63.0718C123.689 62.6686 123.225 62.5003 122.55 62.2377C121.771 61.9474 120.709 61.4981 120.709 60.27C120.709 59.1087 121.64 58.2378 123.223 58.2378C123.916 58.2378 124.56 58.406 125.036 58.6871Z" fill="#604C3F"/>
<path d="M132.101 58.3413H133.713L136.313 65.0393H134.614L134.082 63.6246H131.73L131.197 65.0393H129.508L132.098 58.3413H132.101ZM133.639 62.2583L132.908 60.1984L132.187 62.2583H133.639Z" fill="#604C3F"/>
<path d="M142.028 59.8021H140.199V58.3413H145.531V59.8021H143.699V65.0393H142.028V59.8021Z" fill="#604C3F"/>
<path d="M156.892 61.6964C156.892 63.6157 155.431 65.1525 153.343 65.1525C151.254 65.1525 149.802 63.6157 149.802 61.6964C149.802 59.7771 151.254 58.2402 153.352 58.2402C155.45 58.2402 156.892 59.7771 156.892 61.6964ZM151.513 61.6964C151.513 62.7747 152.243 63.6157 153.354 63.6157C154.465 63.6157 155.186 62.7724 155.186 61.6964C155.186 60.6204 154.456 59.7771 153.354 59.7771C152.253 59.7771 151.513 60.6111 151.513 61.6964Z" fill="#604C3F"/>
<path d="M170.923 63.6615L169.357 61.1892V65.0393H167.698V58.3506H169.196L171.276 61.6961L173.355 58.3506H174.853V65.0393H173.194V61.1892L171.628 63.6615H170.926H170.923Z" fill="#604C3F"/>
<path d="M181.869 58.3413H183.481L186.081 65.0393H184.382L183.85 63.6246H181.498L180.966 65.0393H179.276L181.866 58.3413H181.869ZM183.407 62.2583L182.676 60.1984L181.955 62.2583H183.407Z" fill="#604C3F"/>
<path d="M190.506 58.3413H193.314C194.756 58.3413 195.715 59.2676 195.715 60.544C195.715 61.3597 195.183 62.1085 194.369 62.408L196.124 65.0393H194.254L192.793 62.7352H192.177V65.0393H190.506V58.3413ZM193.134 61.3758C193.657 61.3758 193.998 61.021 193.998 60.5509C193.998 60.0809 193.657 59.7353 193.134 59.7353H192.175V61.3735H193.134V61.3758Z" fill="#604C3F"/>
<path d="M205.711 64.6637C205.265 64.9816 204.639 65.1499 203.9 65.1499C201.907 65.1499 200.408 63.6983 200.408 61.7398C200.408 59.7813 201.946 58.2261 203.967 58.2261C204.602 58.2261 205.193 58.3666 205.638 58.6201V60.2398C205.221 59.9403 204.67 59.7629 204.119 59.7629C202.943 59.7629 202.135 60.5509 202.135 61.6937C202.135 62.8365 202.961 63.5946 204.079 63.5946C204.658 63.5946 205.256 63.3987 205.711 63.0508V64.6614V64.6637Z" fill="#604C3F"/>
<path d="M210.537 58.3506H212.208V60.8897H214.684V58.3506H216.355V65.0393H214.684V62.3597H212.208V65.0393H210.537V58.3506Z" fill="#604C3F"/>
<path d="M221.499 58.3413H225.949V59.7652H223.16V60.9818H225.42V62.3596H223.16V63.6154H226.082V65.0393H221.499V58.3413Z" fill="#604C3F"/>
<path d="M33.9667 11.7457C31.3016 11.5729 29.0588 12.1098 27.2221 13.7549C25.4718 15.3263 24.0738 17.9437 23.9081 20.4506C23.7378 23.0196 24.3726 25.0979 25.9712 26.8951C27.5675 28.6923 30.1837 29.3443 32.7859 29.5148C37.9902 29.8512 42.4454 26.8098 42.7861 21.674C42.9051 19.8907 42.5061 18.1902 41.7149 16.7156C40.2306 13.9415 37.3624 11.9669 33.9644 11.7457H33.9667Z" fill="#F48D26"/>
<path d="M17.8685 43.01C17.4951 42.7519 17.1123 42.4893 16.7179 42.2197C11.2289 38.4479 6.40727 35.5701 4.25552 34.2337C3.39902 33.7015 2.52618 33.3927 2.02675 34.2337C1.53432 35.0632 0.743172 38.8903 0.313756 42.9731C-0.241685 48.2472 0.0220328 56.2032 0.477121 57.9428C1.05123 60.1409 18.7717 73.5599 22.5547 72.7972C24.4521 72.3156 22.8838 65.4241 23.2128 58.4082C23.3715 55.0212 23.2012 52.5074 23.2128 48.7863C23.2175 47.049 22.6854 46.5721 22.2 46.1136C21.3201 45.2841 21.0588 45.2081 17.8685 43.0123V43.01Z" fill="#7CB342"/>
<path d="M34.6155 9.34003C33.7893 7.76864 36.8396 3.76184 41.0637 2.05682C44.6951 0.591417 47.7454 0.844866 47.7454 0.844866C47.7454 0.844866 46.8585 5.84012 42.6904 8.50826C39.5911 10.4921 35.4417 10.9137 34.6155 9.34003Z" fill="#7CB342"/>
<path d="M20.3702 31.7108C21.3831 31.356 22.8603 30.1855 24.3026 29.5796C24.7577 29.3883 24.9327 28.8445 24.655 28.439C23.8499 27.2616 22.0692 25.1073 22.0692 22.5636C22.0692 20.9738 22.0482 20.4738 22.641 18.7089C23.3434 17.0085 23.2501 17.043 23.0167 17.043C17.8614 17.043 13.3502 21.112 13.0911 26.1465C13.0911 26.4921 13.2335 26.734 13.5579 26.8792C17.4436 27.3308 18.7062 30.3652 19.4624 31.4389C19.6631 31.7247 20.0341 31.8306 20.3679 31.7131L20.3702 31.7108Z" fill="#F48D26"/>
<path d="M18.2442 34.1113C18.4099 33.7933 18.4449 33.4224 18.3306 33.0837C17.1917 29.7243 15.0423 28.1806 11.1519 27.6092C7.85188 27.123 4.63593 29.1967 4.03148 30.8441C3.9568 31.0515 3.9918 31.6436 4.18084 31.7588L16.4752 39.542C16.6572 39.6526 16.8906 39.5374 16.9116 39.3277C17.0867 37.7264 17.5278 35.4937 18.2419 34.1113H18.2442Z" fill="#F48D26"/>
<path d="M40.0019 42.1688C39.6028 43.7241 43.1759 42.2172 44.8282 41.7241C46.5132 41.2219 47.6101 41.1412 47.7034 40.5007C48.1818 37.2289 50.3429 33.6092 50.3616 33.3004C50.5716 30.0701 47.8341 26.5287 42.9612 26.4204C42.6601 26.4204 42.3824 26.9803 42.1933 27.3443C41.0895 29.5148 39.2458 30.3374 37.6798 30.9341C37.2854 31.0839 37.157 31.5746 37.4184 31.9018C40.3893 35.6091 40.359 39.2104 40.0019 42.1711V42.1688Z" fill="#F48D26"/>
<path d="M58.3316 53.401C58.3316 49.2052 58.2873 45.3759 57.9792 43.0395C57.4775 39.2193 56.1729 35.2171 54.3572 34.2886C53.9511 34.0812 53.5194 34.0236 53.0666 34.1596C51.8647 34.5213 50.9732 36.4775 50.3734 38.4014C49.9697 39.694 49.699 40.9727 49.5543 41.7446C49.4679 42.1985 49.1318 42.5626 48.6814 42.6847C48.6814 42.6847 42.4852 44.2238 40.8749 44.7284C39.2646 45.233 36.3987 46.0187 36.3987 46.0187L34.9471 46.4127C34.6227 46.5002 34.289 46.3044 34.2213 45.9795C34.0253 45.0648 33.5912 43.2791 32.947 41.9151C32.2516 40.4451 30.2469 38.2424 28.9656 38.929C26.4941 40.2539 25.4533 47.5071 25.4043 48.0716C25.3553 48.6384 25.1522 50.2213 25.1149 51.6107C25.0822 52.8388 24.9912 57.6566 25.0449 60.3616C25.1312 64.6196 24.3331 71.3452 25.962 72.4995C28.2095 74.094 50.5088 68.8176 56.6466 66.0366C58.6934 65.108 58.334 58.8916 58.334 53.3964L58.3316 53.401Z" fill="#7CB342"/>
<path d="M23.8218 44.6849C24.0179 44.8001 24.2676 44.701 24.3259 44.4822C25.1707 41.2633 26.508 37.639 28.403 36.6229C30.2771 35.6183 33.2083 38.8394 34.2235 40.9868C34.8863 42.39 35.339 43.0767 35.6751 44.2725C35.7241 44.4453 35.8992 44.5605 36.0765 44.519C36.8887 44.337 37.3181 44.1573 37.5025 44.0651C37.5771 44.0282 37.6332 43.9637 37.6635 43.8877C40.6321 36.7312 35.003 29.7544 28.1697 30.395C22.858 30.8927 18.4915 34.6806 18.4915 39.9477C18.4915 40.48 18.4915 41.0145 18.7038 41.4039C18.7318 41.4569 18.7762 41.4984 18.8275 41.5306L22.949 44.1596L23.8242 44.678L23.8218 44.6849Z" fill="#F48D26"/>
<path d="M40.077 58.8714C40.077 60.7101 38.6324 61.9543 37.1924 62.2008C34.9146 62.5902 33.9531 60.9266 33.9531 59.088C33.9531 57.2493 35.4514 55.542 36.9357 55.542C38.42 55.542 40.0746 57.0327 40.0746 58.8714H40.077Z" fill="white"/>
<path d="M35.4909 58.8113C35.5913 57.6408 36.5971 56.3183 37.7454 56.65C39.0266 57.0187 39.26 57.8712 39.288 58.9449C39.316 60.12 38.5342 61.0255 37.3556 61.1614C35.8853 61.3296 35.3882 59.9841 35.4909 58.8136V58.8113Z" fill="#7CB342"/>
<path d="M54.1214 55.5096C54.1214 57.3482 52.6768 58.5924 51.2368 58.839C48.959 59.2284 48.1609 57.6501 48.1609 55.8114C48.1609 53.9728 49.7502 52.1802 51.2368 52.1802C52.7234 52.1802 54.1214 53.6709 54.1214 55.5096Z" fill="white"/>
<path d="M49.9161 55.65C49.8344 54.4772 50.5252 53.3874 51.7224 53.4151C53.132 53.4473 53.5008 54.3782 53.5404 55.4035C53.5871 56.574 52.978 57.5855 51.6897 57.6615C50.2125 57.7491 49.9977 56.8228 49.9161 55.65Z" fill="#7CB342"/>
<path d="M28.5219 20.6162C27.9875 20.7452 27.7074 21.2291 27.8241 21.5263C27.9408 21.8236 28.6083 21.7982 28.6083 21.7982L28.5219 20.6162Z" fill="white"/>
<path d="M28.9842 24.2152C28.4545 24.3604 28.1884 24.8534 28.3168 25.146C28.4428 25.441 28.8932 25.5654 28.8932 25.5654L28.9866 24.2129L28.9842 24.2152Z" fill="white"/>
<path d="M26.487 22.8763C26.0039 23.1367 25.8569 23.6735 26.0483 23.9316C26.2373 24.1897 26.585 24.1551 26.585 24.1551L26.487 22.874V22.8763Z" fill="white"/>
</svg>
