<svg width="800" height="280" viewBox="0 0 800 280" fill="none" xmlns="http://www.w3.org/2000/svg">
<g clip-path="url(#clip0_2557_3958)">
<path d="M393.99 7.74075C393.71 6.77075 394.17 5.75075 395.07 5.31075C401.36 2.19075 422.98 -3.91925 445.38 3.61075C459.21 8.25075 482.9 0.0107529 485.83 1.89075C487.69 3.08075 478.35 14.3408 469.94 18.6208C455.11 26.1608 448.5 27.0008 435.65 27.5408C419.2 28.2408 406.25 42.9207 402.33 42.7308L393.99 7.74075Z" fill="#F48D26"/>
<path d="M388.18 7.66916C388.18 7.66916 401.16 60.0992 402 62.6592C402.84 65.2192 399.58 68.8892 396.24 65.6792C391.64 61.2692 381.16 10.4292 381.16 10.4292C381.16 10.4292 380.53 5.47916 383.96 4.94916C387.63 4.37916 388.19 7.66916 388.19 7.66916H388.18Z" fill="#604C3F"/>
<path d="M477.99 97.8481L480.82 99.8281L478.87 107.218C478.6 108.188 478.26 109.188 477.96 110.158L478.05 110.218C478.88 109.618 479.69 108.948 480.51 108.368L486.75 103.998L489.58 105.978L480.79 118.498L478.46 116.868L482.13 111.648C482.96 110.468 484.37 108.858 485.34 107.768L485.25 107.708L482.15 109.918L476.5 113.788L475.04 112.758L476.75 106.108L477.8 102.458L477.73 102.408C477.02 103.678 476 105.558 475.17 106.738L471.5 111.958L469.21 110.348L478 97.8281L477.99 97.8481Z" fill="#604C3F"/>
<path d="M486.43 118.508C487.8 116.438 490.22 116.488 494.46 118.698C495.03 117.718 495.09 116.718 493.88 115.908C492.97 115.308 491.83 115.118 490.57 115.028L490.75 112.738C492.38 112.798 494.16 113.158 495.7 114.178C498.19 115.828 498.5 118.138 496.66 120.928L492.93 126.558L490.82 125.168L491.33 124.018L491.26 123.968C489.92 124.118 488.57 124.018 487.45 123.278C485.69 122.118 485.35 120.128 486.43 118.488V118.508ZM492.15 122.188L493.44 120.238C490.84 118.938 489.6 119.058 489.03 119.918C488.53 120.678 488.86 121.358 489.61 121.858C490.35 122.348 491.12 122.358 492.15 122.178V122.188Z" fill="#604C3F"/>
<path d="M503.34 119.53L505.47 120.88L504.57 122.73L504.62 122.76C506.16 121.95 507.66 121.93 508.7 122.58C509.25 122.93 509.52 123.22 509.74 123.53L507.89 125.46C507.6 125.13 507.35 124.9 506.94 124.64C506.16 124.14 504.89 124.05 503.45 125.12L499.76 130.94L497.15 129.28L503.34 119.52V119.53Z" fill="#604C3F"/>
<path d="M508.88 129.86C510.88 126.58 514.45 126.14 517.18 127.81C518.42 128.57 519.08 129.62 519.44 130.69L517.16 131.6C516.91 130.87 516.59 130.36 516.03 130.02C514.48 129.08 512.7 129.66 511.57 131.51C510.43 133.38 510.76 135.22 512.2 136.1C512.92 136.54 513.81 136.62 514.64 136.5L514.66 138.86C513.18 139.1 511.74 138.72 510.62 138.04C507.83 136.34 506.87 133.14 508.87 129.87L508.88 129.86Z" fill="#604C3F"/>
<path d="M525.85 127.629L528.52 129.189L526.43 132.779L525.21 134.579C526.47 134.309 527.88 134.179 529.26 134.979C531.46 136.259 531.53 138.309 530.07 140.829L526.45 147.059L523.78 145.499L527.22 139.599C528.12 138.049 528 137.259 527 136.679C526.16 136.189 525.41 136.279 524.24 136.579L520.24 143.449L517.57 141.889L525.86 127.659L525.85 127.629Z" fill="#604C3F"/>
<path d="M532.98 144.108C534.79 140.838 538.28 140.108 540.73 141.468C543.57 143.038 543.91 145.898 542.36 148.678C542.08 149.188 541.75 149.638 541.55 149.838L535.2 146.308C534.5 148.088 535.12 149.568 536.65 150.418C537.5 150.888 538.37 151.048 539.36 150.998L539.38 153.128C537.99 153.248 536.44 152.958 535.17 152.258C532.28 150.658 531.13 147.438 532.98 144.098V144.108ZM540.34 146.848C541.09 145.498 540.95 144.278 539.62 143.548C538.53 142.948 537.16 143.168 536.14 144.518L540.34 146.848ZM540.91 138.098L546.07 136.168L546.93 138.958L541.54 140.118L540.91 138.088V138.098Z" fill="#604C3F"/>
<path d="M542.83 154.607L544.97 153.597C545.52 154.807 546.2 155.677 547.16 156.197C548.2 156.747 548.9 156.557 549.24 155.927C549.65 155.157 548.75 154.237 547.88 153.237C546.82 152.047 545.77 150.477 546.69 148.767C547.66 146.947 549.85 146.457 552.23 147.717C553.73 148.517 554.58 149.757 555.09 150.857L553 151.827C552.54 150.907 552 150.167 551.24 149.767C550.29 149.267 549.63 149.427 549.32 150.007C548.92 150.757 549.74 151.547 550.62 152.527C551.72 153.767 552.89 155.257 551.88 157.147C550.93 158.937 548.73 159.607 546.02 158.167C544.63 157.427 543.42 156.017 542.83 154.617V154.607Z" fill="#604C3F"/>
<path d="M563.11 165.32L563.03 165.28L562.24 166.25L560.07 165.17L567.43 150.43L570.2 151.81L568.35 155.52L567.44 157.14C568.64 156.82 569.94 156.84 570.98 157.36C573.58 158.66 574.1 161.53 572.52 164.68C570.74 168.24 567.55 169.21 565.23 168.05C564.29 167.58 563.51 166.59 563.1 165.3L563.11 165.32ZM569.66 163.33C570.65 161.35 570.55 159.94 569.1 159.22C568.38 158.86 567.57 158.89 566.49 159.26L564.22 163.8C564.59 164.7 565.17 165.24 565.73 165.53C567.01 166.17 568.52 165.59 569.65 163.34L569.66 163.33Z" fill="#604C3F"/>
<path d="M571.46 175.737L572.98 173.877C573.14 174.027 573.41 174.247 573.66 174.357C574.74 174.877 575.67 174.497 576.41 173.727L576.89 173.207L577.64 160.977L580.45 162.317L579.83 167.967C579.71 169.057 579.49 170.187 579.32 171.337L579.42 171.387C580.13 170.537 580.88 169.657 581.58 168.807L585.35 164.657L588.03 165.937L579.12 174.887C577.02 176.907 575.2 177.777 572.82 176.637C572.19 176.337 571.81 176.067 571.46 175.737Z" fill="#604C3F"/>
<path d="M594.78 177.308L596.88 172.638L595.36 171.958L596.28 169.908L598.01 170.528L599.62 167.828L601.96 168.878L600.68 171.718L603.33 172.908L602.35 175.088L599.7 173.898L597.6 178.568C597.06 179.768 597.3 180.558 598.26 180.998C598.61 181.158 599.08 181.228 599.42 181.248L598.97 183.468C598.31 183.398 597.47 183.268 596.53 182.848C593.98 181.698 593.72 179.658 594.78 177.308Z" fill="#604C3F"/>
<path d="M609.15 170.117L611.99 171.347L610.34 175.157L609.34 177.087C610.55 176.667 611.94 176.367 613.41 177.007C615.75 178.017 616.07 180.047 614.91 182.717L612.05 189.327L609.21 188.097L611.92 181.827C612.63 180.177 612.41 179.407 611.35 178.947C610.46 178.567 609.72 178.737 608.59 179.167L605.44 186.467L602.6 185.237L609.14 170.117H609.15Z" fill="#604C3F"/>
<path d="M621.33 180.717L624.18 181.927L619.68 192.577L616.83 191.367L621.33 180.717ZM622.47 177.367C622.86 176.457 623.79 176.137 624.78 176.547C625.75 176.957 626.17 177.857 625.79 178.767C625.4 179.697 624.46 180.017 623.49 179.607C622.5 179.187 622.08 178.297 622.47 177.367Z" fill="#604C3F"/>
<path d="M624.03 192.949L626.06 191.729C626.73 192.879 627.49 193.679 628.5 194.099C629.59 194.549 630.27 194.289 630.54 193.619C630.87 192.819 629.89 191.989 628.92 191.079C627.75 189.999 626.55 188.539 627.29 186.749C628.08 184.839 630.21 184.139 632.7 185.159C634.28 185.809 635.24 186.959 635.86 187.999L633.88 189.169C633.33 188.299 632.72 187.619 631.92 187.289C630.93 186.879 630.29 187.109 630.04 187.719C629.72 188.499 630.61 189.209 631.59 190.099C632.81 191.229 634.12 192.589 633.3 194.579C632.53 196.449 630.41 197.339 627.57 196.169C626.11 195.569 624.77 194.279 624.04 192.959L624.03 192.949Z" fill="#604C3F"/>
<path d="M643.6 196.078C644.97 192.488 648.4 191.408 651.39 192.548C652.75 193.068 653.59 193.988 654.14 194.968L652.06 196.278C651.69 195.608 651.27 195.158 650.66 194.928C648.97 194.278 647.32 195.178 646.55 197.208C645.77 199.258 646.43 201.008 648 201.608C648.79 201.908 649.67 201.828 650.47 201.558L650.92 203.868C649.51 204.368 648.02 204.268 646.8 203.798C643.75 202.638 642.22 199.668 643.59 196.078H643.6Z" fill="#604C3F"/>
<path d="M655.47 200.579C656.74 196.959 660.04 195.749 662.83 196.729C665.61 197.709 667.43 200.709 666.16 204.339C664.89 207.969 661.59 209.169 658.8 208.189C656.02 207.209 654.2 204.209 655.47 200.579ZM663.18 203.289C663.9 201.239 663.52 199.599 662.01 199.069C660.5 198.539 659.17 199.579 658.46 201.629C657.73 203.699 658.12 205.319 659.63 205.849C661.14 206.379 662.46 205.359 663.18 203.289Z" fill="#604C3F"/>
<path d="M669.28 205.377C670.42 201.707 673.68 200.387 676.49 201.267C679.3 202.147 681.23 205.087 680.09 208.747C678.95 212.417 675.69 213.737 672.88 212.857C670.07 211.977 668.14 209.037 669.28 205.377ZM677.08 207.807C677.73 205.737 677.29 204.107 675.76 203.627C674.23 203.147 672.94 204.237 672.3 206.307C671.65 208.397 672.09 210.007 673.62 210.487C675.15 210.967 676.43 209.897 677.08 207.807Z" fill="#604C3F"/>
<path d="M685.57 204.289L688.01 204.959L687.69 206.989L687.75 207.009C688.98 205.779 690.42 205.319 691.59 205.639C692.22 205.809 692.56 206.009 692.87 206.249L691.67 208.639C691.3 208.409 690.99 208.259 690.52 208.129C689.63 207.889 688.39 208.169 687.32 209.609L685.5 216.259L682.51 215.439L685.56 204.289H685.57Z" fill="#604C3F"/>
<path d="M694.04 212.558C694.89 208.898 697.75 207.188 700.23 207.768C701.52 208.068 702.21 208.738 702.86 209.668L703.17 207.878L704.09 203.918L707.08 204.618L703.36 220.668L700.92 220.098L700.96 218.878L700.88 218.858C699.85 219.468 698.56 219.848 697.37 219.568C694.52 218.908 693.19 216.268 694.05 212.568L694.04 212.558ZM701.13 216.648L702.28 211.698C701.73 210.908 701.04 210.518 700.32 210.348C699.03 210.048 697.66 210.998 697.14 213.258C696.6 215.588 697.19 216.958 698.71 217.308C699.51 217.498 700.26 217.328 701.13 216.638V216.648Z" fill="#604C3F"/>
<path d="M710.59 210.327L713.63 210.927L711.38 222.267L708.34 221.667L710.59 210.327ZM711.03 206.817C711.22 205.847 712.07 205.337 713.13 205.547C714.16 205.747 714.76 206.547 714.56 207.517C714.36 208.507 713.51 209.017 712.48 208.807C711.43 208.597 710.83 207.807 711.03 206.817Z" fill="#604C3F"/>
<path d="M718.23 211.828L720.72 212.248L720.69 213.788H720.75C721.93 212.998 723.25 212.378 724.83 212.648C727.34 213.068 728.13 214.968 727.65 217.838L726.45 224.948L723.4 224.428L724.54 217.688C724.84 215.918 724.44 215.218 723.3 215.028C722.34 214.868 721.67 215.218 720.68 215.908L719.36 223.748L716.31 223.228L718.23 211.828Z" fill="#604C3F"/>
<path d="M731.15 222.479C731.49 220.029 733.69 219.019 738.47 219.179C738.56 218.049 738.18 217.119 736.74 216.919C735.66 216.769 734.55 217.099 733.38 217.559L732.55 215.419C734.04 214.769 735.8 214.329 737.64 214.579C740.6 214.989 741.88 216.939 741.42 220.249L740.5 226.939L738 226.589L737.96 225.329H737.88C736.74 226.039 735.48 226.529 734.15 226.339C732.06 226.049 730.89 224.409 731.16 222.469L731.15 222.479ZM737.9 223.329L738.22 221.019C735.32 220.969 734.25 221.619 734.11 222.639C733.99 223.539 734.58 224.019 735.48 224.139C736.36 224.259 737.06 223.939 737.91 223.329H737.9Z" fill="#604C3F"/>
<path d="M746.39 223.576L746.99 218.486L745.34 218.286L745.61 216.046L747.45 216.116L748.17 213.066L750.72 213.366L750.35 216.466L753.23 216.806L752.95 219.186L750.06 218.846L749.46 223.936C749.3 225.246 749.78 225.926 750.82 226.056C751.2 226.096 751.67 226.036 752 225.946L752.24 228.196C751.59 228.326 750.75 228.456 749.72 228.336C746.94 228.006 746.08 226.136 746.38 223.576H746.39Z" fill="#604C3F"/>
<path d="M756.02 222.959C756.42 219.139 759.35 217.199 762.28 217.509C765.21 217.809 767.68 220.309 767.29 224.129C766.89 227.949 763.96 229.889 761.03 229.579C758.1 229.269 755.63 226.779 756.02 222.959ZM764.14 223.799C764.36 221.639 763.61 220.129 762.02 219.969C760.43 219.809 759.38 221.129 759.16 223.289C758.94 225.469 759.69 226.959 761.28 227.119C762.87 227.279 763.92 225.979 764.14 223.799Z" fill="#604C3F"/>
<path d="M772.29 218.789L774.81 219.019L774.85 221.079H774.91C775.91 219.659 777.24 218.959 778.46 219.069C779.11 219.129 779.48 219.269 779.82 219.439L779.06 221.999C778.65 221.839 778.32 221.749 777.84 221.699C776.92 221.609 775.75 222.109 774.95 223.709L774.32 230.579L771.24 230.299L772.3 218.789H772.29Z" fill="#604C3F"/>
<path d="M203.54 166.568C201.36 158.858 196.41 149.568 194.06 145.728C190.47 139.858 187.4 137.368 185.81 138.588C183.76 140.168 182.74 142.208 181.43 147.278C180.46 151.058 180.89 154.998 180.62 154.618C180.62 154.618 172.52 155.748 168.15 157.088C164.51 158.208 155.54 162.048 155.54 162.048C155 162.378 154.29 162.188 154 161.628C153.17 160.048 151.45 156.988 149.57 154.808C147.54 152.458 142.76 149.438 140.79 151.358C137 155.058 138.5 169.598 138.7 170.658C138.91 171.728 139.56 180.978 143.09 193.458C145.31 201.288 147.12 207.828 150.68 209.118C155.59 210.898 197.94 201.158 207.63 192.888C210.86 190.128 206.39 176.668 203.53 166.558L203.54 166.568Z" fill="#604C3F"/>
<path d="M167.75 183.298C168.71 186.678 166.73 189.708 164.25 190.898C160.32 192.788 157.71 190.218 156.75 186.838C155.79 183.458 157.63 179.548 160.32 178.788C163.01 178.028 166.79 179.918 167.75 183.298Z" fill="white"/>
<path d="M158.73 185.728C158.31 183.528 159.44 180.578 161.7 180.598C164.22 180.618 165.09 182.068 165.69 184.028C166.35 186.168 165.41 188.238 163.34 189.098C160.76 190.158 159.16 187.938 158.73 185.738V185.728Z" fill="#604C3F"/>
<path d="M195.51 175.448C196.47 178.828 194.49 181.858 192.01 183.048C188.08 184.938 185.81 182.438 184.86 179.058C183.91 175.678 185.86 171.568 188.55 170.808C191.24 170.048 194.56 172.068 195.51 175.448Z" fill="white"/>
<path d="M186.9 178.158C186.14 176.048 186.83 173.688 189.01 173.118C191.58 172.458 192.74 173.978 193.34 175.848C194.03 177.978 193.46 180.148 191.16 180.948C188.53 181.868 187.65 180.268 186.9 178.158Z" fill="#604C3F"/>
<path d="M163.12 123.899C159.1 124.159 155.85 125.409 153.43 128.269C151.12 130.989 149.55 135.239 149.8 139.069C150.06 142.999 151.42 146.019 154.17 148.429C156.92 150.839 160.96 151.319 164.89 151.059C172.74 150.549 178.8 145.059 178.29 137.209C178.11 134.479 177.18 131.979 175.7 129.899C172.93 125.989 168.25 123.559 163.12 123.889V123.899Z" fill="#F48D26"/>
<path d="M163.61 120.118C162.06 117.898 165.83 111.228 171.81 107.818C176.95 104.878 181.57 104.668 181.57 104.668C181.57 104.668 181.24 112.408 175.53 117.278C171.29 120.898 165.16 122.348 163.61 120.128V120.118Z" fill="#7CB342"/>
<path d="M156.74 138.406C155.97 138.706 155.64 139.496 155.88 139.926C156.12 140.356 157.11 140.186 157.11 140.186L156.75 138.406H156.74Z" fill="white"/>
<path d="M158.15 143.768C157.39 144.088 157.09 144.888 157.34 145.308C157.59 145.728 158.29 145.828 158.29 145.828L158.16 143.758L158.15 143.768Z" fill="white"/>
<path d="M154.15 142.234C153.48 142.724 153.37 143.564 153.7 143.924C154.03 144.284 154.55 144.154 154.55 144.154L154.15 142.234Z" fill="white"/>
<path d="M602.13 198.009C458.93 137.619 404.52 71.9688 399.85 71.9688C394.22 71.9688 314.82 194.869 0 243.549C0 243.549 0.23 279.759 36.36 279.759C51.32 279.759 68.28 276.959 86.32 261.399C98.98 279.279 119.07 279.659 128.1 279.749C146.67 279.919 172.73 276.539 186.39 264.349C195.41 274.199 210.41 278.849 225.76 278.899C236.08 278.929 251.21 277.129 267.78 263.049C282.9 278.849 300.86 277.889 315.22 278.129C324.05 278.279 355.95 276.169 363.69 259.089C373.4 273.699 388.56 278.929 399.13 278.929C406.86 278.929 425.9 277.859 444.47 261.399C462.86 277.139 473.91 279.759 487.05 279.759C495.56 279.759 510.34 280.919 528.64 262.369C544.89 280.919 567.19 279.199 576.56 278.429C586.75 277.599 598.37 275.809 610.47 263.069C624.59 274.099 645.22 279.759 667.94 279.759C686.76 279.759 702.35 277.699 714.97 261.759C731.45 273.529 753.14 281.509 769.54 279.759C800.24 276.469 800.01 243.549 800.01 243.549C708.91 236.589 678.65 230.279 602.14 198.019L602.13 198.009Z" fill="#7CB342"/>
<path d="M400.03 99.3281C400.03 99.3281 379.95 231.518 360.73 246.358C360.73 246.358 349.34 264.818 315.71 264.498C290.83 264.258 280.47 253.038 280.47 253.038C307.66 234.048 322.37 221.728 345.61 193.038C371.36 161.238 400.03 99.3381 400.03 99.3381V99.3281Z" fill="white"/>
<path d="M406.62 100.5C406.62 100.5 433.91 233.99 447.73 248.99C447.73 248.99 457.56 269.19 487.74 268.79C512.62 268.46 517.78 251.27 517.78 251.27C487.41 221.23 477.13 213.26 452.39 178.75C439.8 161.18 406.61 100.5 406.61 100.5H406.62Z" fill="white"/>
<path d="M104.78 252.29C104.78 252.29 113.55 265.81 135.64 266.96C157.62 268.11 183.06 254.71 185.48 253.49C185.48 253.49 334.5 184.84 388.78 97.8398C388.78 97.8398 344.05 140.82 270.7 182.7C208.6 218.16 134.3 246.03 104.79 252.28L104.78 252.29Z" fill="white"/>
<path d="M703.63 256.448C703.63 256.448 694.34 268.268 671.79 268.488C639.72 268.798 624.69 260.068 624.69 260.068C624.69 260.068 467.62 183.788 417.2 98.9883C417.2 98.9883 457.06 139.868 522.57 180.578C584.11 218.818 673.55 250.198 703.64 256.448H703.63Z" fill="white"/>
<path d="M150.96 202.04C146.33 197.57 136.31 199.93 137.39 208.42C137.8 211.67 141.79 219.47 148.9 217.48C156.01 215.49 157.24 212.89 157.28 210.81C157.39 206.1 150.96 202.03 150.96 202.03V202.04Z" fill="#604C3F"/>
<path d="M202.63 185.699C201.79 179.319 209.64 172.659 215.83 178.579C218.2 180.849 222.1 188.689 216.28 193.219C210.46 197.749 207.64 197.199 205.93 195.999C202.07 193.289 202.63 185.699 202.63 185.699Z" fill="#604C3F"/>
</g>
<defs>
<clipPath id="clip0_2557_3958">
<rect width="800" height="280" fill="white"/>
</clipPath>
</defs>
</svg>
