<svg width="264" height="88" viewBox="0 0 264 88" fill="none" xmlns="http://www.w3.org/2000/svg">
<path d="M216.241 48.959C218.401 48.709 218.981 48.619 218.351 50.429C215.221 59.489 208.531 84.6291 205.331 87.979C204.481 88.869 181.951 61.309 177.891 54.209C177.411 53.369 179.271 53.149 181.381 52.899L216.241 48.969V48.959Z" fill="#7CB342"/>
<path d="M122.061 48.3186C124.201 48.6686 124.781 48.7586 123.681 50.3186C118.151 58.1586 104.771 80.4486 100.751 82.7786C99.6908 83.3986 85.6808 50.6686 83.7508 42.7186C83.5208 41.7786 85.3708 42.0786 87.4708 42.4286L122.061 48.3186Z" fill="#7CB342"/>
<path d="M34.0313 19.8496C35.8913 20.9796 36.4013 21.2696 34.7913 22.3096C26.7513 27.5196 6.02132 43.2296 1.43132 43.8996C0.211318 44.0696 -0.598681 8.47958 0.561319 0.389584C0.701319 -0.560416 2.30132 0.389584 4.12132 1.49958L34.0313 19.8496Z" fill="#7CB342"/>
<path d="M261.601 36.29C263.701 35.72 264.261 35.56 263.911 37.43C262.141 46.86 257.541 76.2 256.521 76.48C255.331 76.8 229.481 53.52 224.431 47.09C223.831 46.33 225.641 45.84 227.691 45.28L261.601 36.29Z" fill="#F48D26"/>
<path d="M169.921 52.2483C172.091 52.3983 172.511 52.3483 171.721 54.0883C167.161 64.1483 151.231 87.9783 149.851 87.8483C148.631 87.7383 133.041 60.3083 131.261 50.2383C131.091 49.2883 132.811 49.4483 134.931 49.5983L169.911 52.2383L169.921 52.2483Z" fill="#F48D26"/>
<path d="M76.1807 39.5104C78.1707 40.3904 78.5807 40.4804 77.2507 41.8504C69.5407 49.7604 46.4407 66.7404 45.1907 66.1504C44.0807 65.6304 38.7707 34.5304 40.5207 24.4604C40.6907 23.5104 42.2507 24.2504 44.1907 25.1104L76.1807 39.5104Z" fill="#F48D26"/>
</svg>
